<mxfile host="Electron" modified="2024-09-08T02:18:59.683Z" agent="Mozilla/5.0 (Windows NT 10.0; Win64; x64) AppleWebKit/537.36 (KHTML, like Gecko) draw.io/22.1.16 Chrome/120.0.6099.109 Electron/28.1.0 Safari/537.36" etag="g45PRbGemw0l0gsdsYe9" version="22.1.16" type="device" pages="2">
  <diagram id="CY8wMgM-neOGLiGfiEXN" name="Page-1">
    <mxGraphModel dx="2232" dy="677" grid="1" gridSize="10" guides="1" tooltips="1" connect="1" arrows="1" fold="1" page="1" pageScale="1" pageWidth="850" pageHeight="1100" math="0" shadow="0">
      <root>
        <mxCell id="0" />
        <mxCell id="1" parent="0" />
        <mxCell id="OYkCUfsQWH_vlijjAo7n-1" value="" style="shape=image;verticalLabelPosition=bottom;labelBackgroundColor=default;verticalAlign=top;aspect=fixed;imageAspect=0;image=data:image/png,iVBORw0KGgoAAAANSUhEUgAABQQAAADJCAYAAAB10D9WAAAAAXNSR0IArs4c6QAAAARnQU1BAACxjwv8YQUAAAAJcEhZcwAAEnQAABJ0Ad5mH3gAAFf8SURBVHhe7Z09q23XdYbzv/QrYv+BBKMuEGzUpDC4VKE0LpxGkKiICBYYAiYIQuQUQXGnIiDhIihFwEXAcmNc3vg9Wu/ROOOOMedc+6xz9tfzwMvZe64xv8bHXOuse3X1ZwAAAAAAAAAAAAAAAAAAAAAAAAAAAAAAAAAAAAAAAAAAAAAAAAAAAAAAAAAAAAAAAAAAAAAAAAAAAAAAAAAAAAAAAAAAAHBW/u///u8NQgghhBBCCCGEEELo8rS9wjuWaiKEEEIIIYQQQgghhND5tb3CO5ZqIoQQQgghhBBCCCGE0Pm1vcI7lmoihBBCCCGEEEIIIYTQ+bW9wjuWaiKEEEIIIYQQQgghhND5tb3CO5ZqIoQQQgghhBBCCCGE0Pm1vcI7lmoihBBCCCGEEEIIIYTQ+bW9wjuWaiKEEEIIIYQQQgghhND5tb3CO5ZqIoQQQgghhBBCCCGE0Pm1vcI7lmqie9e///u/v3nnnXcepM9q+9u//duH7/qZ7V9S//u///vmb/7mbx7m1k99r+zuVdfmn3/6p396WOuf//mfv/niiy9Km9dS9J3WVdkcpUuI00uswWfFX/7lX7757//+79LmKFXn0r1ItaKa0d6dq6/pe3SsLukcRKdp73n0GjG/5zPy1vQSsTzXc/ypuuZz8uj46R6ve/1K/Bzne3o2qJ6R3HaO/HH8eT5Dl6ajc/Mcub69wjuWaqJ7V76RxRvRax9ul/Ai5ZJ1bf65pAe8+ACRfacHqiP9eQlxeu4adBbkuPnBU9J1t9u3se25yudSZXOrirnqh93O92hNR+So+uaaWNE1/6J7SfKZNvsFeaRT80D2e+rvNWK+d03ocvXcWOZnmHM+x5+qaz4nj67FGL/Zeedng2uJ8xHyOa59+xnJ+RPbXks8n6FL1dG52Y136rPVirZXeMdSTXTvUvBycB1w/cz2L6nnvsS4dV2bfy7pAS/6zg8LL+XPS4jTc9bQxc1nRXzwrM6PI/RS416DqofdyvdoTUfk0nPOsks6B69Ve35B7vScPNjb9zVi/pz9oMvSqbEc3efP9Rx/qq75nDy6FnkhOFb1jOS2c+SP48/zGbo0HZ2b1XhHn39Z2yu8Y6kmune9dCD36DkvMe5B1+afS3/Aeyl/XkKcnrOGPXF7qfPjks6l11b1sItO1xG59Jyz7NLPwWvQnl+QOz0nD/b2fY2YP2c/6LJ0aiwv4VnjKF3zOXl0Le4573ghyDMSQufU0edf1vYK71iqiS5F8Wb4n//5n483eR948cYvVTcJ3xhiv2zjeSTdQP75n//58bsC2T1gxH5WvJ77aQ8+sKWVJMljfPrpp4/9q4eEaG/lm2L0q/vnebyHvMc8Z7wJSSs34DhXtne8PM9eH+t7XJP6e+xq39IpezhVq2uQcj7Hvrkesm30i6/bt96fpM++Xq1B0jhfffXVE1vP0x16cWzp7//+79+KUzVGdf0oVbmidvslynvMfrQcvxzPaixJe6xi361Jsr0kX+ZzyXbVGuP1IxVjpc9xv/ZZbMt7ymOs2Mhf2rtzU36RTeXP6DOr86v6zeqoU1UrcR3WJdbBKEc7m7g3rSn6LNus+KaKXac4n37Kh/ocY5V9JzlPoqq15ZiP8kPX8v5z/2qOai3PUbVfaY9Pcowt9ct5G69V48f2TtGvso/jZx9KcXxJPs/14DGl7oyM8/ocka32WM0jVfG6ldyR4jpPiYUU15VrND6nSo6FFOd27ef++h7ndP/KP3Gc6rqkMRXvPIfXtHd/pzzLn6JRnOL6rFzT0TdS9E/sX8WkOgNibkSfWNEP0afKh2hb5dhs7XE9o3XomseKdT7bz1GK+9bnuC/PF9u09piLUs7juA8rziPb6hkpr6UaW8q+jvlw6jNSlVN7x41+kqKvqvzLfso5E/1h2+zH6AdpJRZHamVflv3Z2cW9SdF/UvavFOMw8l/lq0pxP/q5em+o7tU5FlJcb9yPxlJbnN9rzrmZ1xjPd9vkubt1y67yq/Qv//Ivj/7UPFUscnun7RXesVQTXYpyskfJ8X/xF3/xVruDFAOc1SVQJY2Xk8XB6vraZrQGqSvyqD1jxOLNcqLKLidvnsfrr/YX+8TDobPpFGPrmOXDR217fOw2za01qE3z5DmP2sMp2rMGyXuKfTtVfqzknMn+jn6L0hr2vBDsxrFW9uQ1ep4jVOVKbMvSPrvrjl+OZ5ev8k0V+2pNau/GsVZirfm896MU413pr/7qr95qi+tYiXdnY3k820V/dn6Lvp2Nb9+O1PkhrkU/9b2yk1bW9BJ1MMrRLt+tkY33vuKbKnaduvm0D10fxdM2UrcuaTU/tN7Rc0c3h8b0Oo5QN88en4zyYJS71V7dNtJoTVKMVWcb66Fbv+U1VWN5nBU/SXGvWdeWO9JondJKLCTbzc4NKccj1n7sb39Gf8x85LG6vNWYinee46j9vcQ5Lc3iZL/M1me76B+NneeZ+dH+0F6153xd8rhdrCzbra49zrmyDslxme3nSM32PXtG6vo7NrJxvDpVMbAfjxjfY43kMU4Zt4ur63YU9zjfLD90Hue8iGfDiq+O1Oq+uppxvsum87VtRnW3Wl/RV51G81iOe7Vmr7eLheR1xLmqfnke+3S2xipPKl97PPkv2lqa39diPKOfNZbaZtpe4R1LNdGlKCaHnRTbnARyqoPlRLZdDJoTw21Vv5wY6hPbPKdsszynAx37xeDHZHGCdpqNMWvTT31Xe/ZNtMt77F4A6a29+lQJHMdwW6e4LtvGts4vIx/rp75XY1d9n7uHUzRag9cf7ST7IrZ5bc5pKcdXct/oE+d/nNt9K3+qvbKV4vyeS9f13XvMdlWc3DfO47aj1O0ty+u3n9SW42bbqr3ySWdbrSn6pYpLHNdrjfvxPKM9nqq4N68ttlW5Ve3L68/xrvrJzvuUtD+1dTGJqmzcFseq9rVHcW8e02uOc8d59vjF8xyluI44fvRNtZYqz0b+lyrfrPaVNJ/mlb0U1xvHjnHLvp/tIY4b2/J6pSpuntvzai7NqTbZ6b6pz0cq7inufdUnauvyIKuaa7WvFX3oMWJs7bO4fo8b51dbtccuT6p5pVU/xblvJXcqn8xiMfJR5/uqv+d23zy3faQx8nhZcXz7uxqraz9lf3HdtpO6NT5HMU7eX/SL26Kd11HlbeWv2N97y9893j/8wz88fPa+o3/dx21xnfZtnN9tq2uPbaO+cQ7n8Ww/R6rad2zzmmZ71JrVV+267raqn+wck9g3zmv/ZEV/uZ/91Y3lfY3kMaLPV8et9iLpLNR+fT2OHffhcaKvKr9L9ksecyUWajtSq/uKfnSbpL99p3XHPt5f3E+XC56/8pXbog/iOjtF+zj3nn3FdcScj/YeVz/dFv+LnDie+3n91Z7yuh3vas48Xl6H7bp2t63409pe4R1LNdGlqHKyfuq72h2gmCwKeg5klserxpdywOJ4+ulklLq5Rv3y+B6r0uoY2QdxDH1Xuwu62neeR3b+Hvt6zDh/pbyGrGpfXleeK9pGaQ3VOFWOSHnfz93DKRqtQZ9tV8Wzilu2q/zhMXMeVHN0/StbKa+/s6vG9X46xdgdoW5vUly3Ff1c+b5r72Ja2Y78kuca+bqSrsnG/Y9Qtbcq5qN9ddL1anxJfpA/bKe2zk9x7iiPV/Xr8namak/q3413ql/inEeo8nO1NttXPqvaojrfrPSN2rsuSZ/Vpmuy6fKqilM1Zh5v1teKcx2tLsdWfaK2zi9WvG45BrO+Wd26cnv2YZaud2NVa1qd1+36rDZdk023z2vOnW7vub2zy3vqarRqr8as7Dq/Sx4jyn6sxuran7u/0RqPULW+nDvd2qr+eV+dXdxXto3zV9I12VS+yWuV3era9+xb19VerUWK+zla1b7z2tVWrT+vM0t9q/GlKradrWT/Rnlt2fdqq/YwUjXGyrizeUbX9V3tui67zjbbqS2vbSUWHu8Ire7ryy+/bPPeqmIbpeu2jfNa9kG3piqOnbo6rdq7cbs8nsXXko3jLOV5ujVW66nWsmonxbm8Zq83zj3T9grvWKqJLkWVk/VT36OTc1JEh3dS39Xkq5JlNkfXrxrf81ZaHaMrDMn7dFFU+67mib62PEacv1Jca6e4jvjvSXj9cU2VtIbZujVHNZ9sjtjDXo3WoM+2i/uyP6q4jXI/r1/X1e4YVjnT9a9spbz+zq4a1/vpFPsfoWoNcb1Z0c+V77v2LqaV7cgvea6Rryvl/keo2ltch9auttG+Oine1fiS9qH9qN1zZD/FOSt5vMq/Xd52Gu1F/S+5DqTKz9Xasn30WeXH2F7Je+n6Vhqtqxsn52S1XymOPVqbfup77F/FOI4XFec8Sl2OrfpEbZ1fYnuWY9D17eR1aQ1ai9vzOLbrpL12e6zW1Nl27feQO17naixmPqp8Yem72j1XNWbsP8ov961U+dFjde2n7C+OWa3xSFXry7nTrU3y+txf0me1aezRPI5blOzi/JU8RuWbvFaNtbr2PfvOORfboqIPjlK177h2z1mtP/atJLt//dd/ffzu8aUqttVaHOtK8lG0ifmQ/a+2kaoxVsadzTO67vF1XXadrT6rLeZNXttKLGLOPVer+zrihaDGj/Nl2Qfdmqo4dop5nvflOGgOzdWNW+Wx1I2d95bnzfPEcaJPo981ptpGNRXX3a052mtc/deYnjvbjbS9wjuWaqJLUeVk/dT36LyctF1ws6rxpRzIarxoo3FW+1V2nrfS6hhd4UorRdfNI0Wfe/w9e+gUx9VfBff6PV6cY4+P47juJ+V957Fs95JaXUMVzypue3I/50E1R9e/spXy+ju7atxqPy+p0Rok+79aV7fWqr2LaWW7xy+rvn5JVXuL69Da1bZnX1HV+JLs1S/OkceLfW1TjVetY48vo633lvt3453ql6NV+aVam+2rNc782Pmm69tp77okfVabrsmm2q+0urY4nvt3MZbimiXZyT7aPFfd/Ks+UdssD7zuKgadTzt5XdkXeb3d+qM6m2pNnW3Xrs9q0zXZdPus/F+NGcdz/y520mvkzqpPVn1U5YfsqvZqzMou+z36zDaVH6ux9qxFWt1flxtHqVpf3nO3tqp/3tdoHktz6Jqv/8d//Eebu1GVb/JatZfVte/Zt9cse/Vze7wWx47Xn6tq33Ht9nu1/qpvVmdTxTbbxnV4zuxX9avyobIbqRpjZdzZPKPr+q52XZddZ2u7mDd5bZ2fX0qr+9rzQjD6ubORvL/cr1vTyvhWleddezduF4tZfK08Xp6nW6PtNIfmUlu1lmrd3ZqluG79Z83qF+dY0fYK71iqiS5FlZP1U9+jk6ukcN9o5/7+N1liwNwvjuW+o8SNQYxJ2PXL88a1Vdozhufv/OU9xr7aR27TPHprLXvPl30cv8d1Sfp3OeyTkeLerOjPU31crS222T+Vnde2uoe9yjndraHK39xXbbG/45t9pLaYB7JXv6pv7G87tUU/uz22STkecZ1xP95nXFOcX9d0SOqn245QXJvX4L36e7SJ64/1YZ9KVUzivnTdtnEMt8c2ryG22S8xVpLX4PXH+T2ubY5UXJvHj2vzvipfr8Q72lQxiXNk3/t7zFv7R/J6cz+1xT3EtVWKa/SY0S/qH9cc54l2e/zitqMU57Q/JftGquLrNas97sW2K76J80TfdIq+jPNLne/0OY7f7aHab7W2al9Vzvzd3/3dk/14HTEnj1Lnl1WfZFvnQdyX26Kd54pxtU9Gir6u5vK43fp1zfVQ5VQcSxrFU+rmyX6q1hjHlUZzxXlsF8f03K+ZO8+NRfaRbNUntskuxsnzzNq6/Kr8GG2q9UXfxTU+Z3/uK7u8Rvc/SlU+VbkT4+l1VPGctXkejRf3k9eR/WM79XE//ZSN5LbKj6es3fv2OmLfOK/s1W+2H7cfoTh/tR/NrbbKF9W+Pa5/J9F6te5oE8eKc+S1xL5eW7TJ+RT9U/l/pGqM1XGruErP+TcE45rdP/o4r20lFv5+lFb35bVK+uz+1b8hGPetPfgemn0gOYcqH8Rxqjh2qsZVe8w776Ebt4tF9EOVz7qnjvp5nrjGyk5jON5xfM9ZrVs/9V3tuq62KPvfiv5d0fYK71iqiS5FMyc7GFXSxrYsBycmQSfNUSVLTIpKXT/NG/t6D532jBF9kxUTemQnaZ74PxXJ8nyOT1aca6Y8RiyKuMdKul75J7ZVivl0xB72qMrpbg3S7BCucn8WX++t6hvnsexX2cT2LOfFLG4eT7bdmNHmKMW88Pgj30c/Z5/62iwmlnwyi4vXFNfZyb4ejWmbIxVj6/HjfuUPtVW+VvtKvGd55jmy7+PaKnm9s5jFWqhUxTfK/Wfr2euXI9Xl6Ghv0V9Szj19jn97pJJ9U8WgU5dL1ihfnCuS56wUY16tLe61ynv379YSxz9Seb7ZOqTokyre+k/S7O9KjkHMb/tkpJH/pThGt37PHXOik8er4jmbR4p+Gq3dPo92l547R8RCso9m8dBetWfZRn9U6vJrdDZJVRwsjan+XqPnOGV/sW9eo+c/SlU+Vbkz8k3sO4uTbbv88N5HMbQfKt9Uflxde7Xv0Tok2avfbD8a6yhV+45rn+VUt1bvRTajnJU8R17LyNeS/eo1zPw/UjXG6rhdXO2nUdyjn7o123+V36v1ZsU5jtQp++psvMcs77nbm2QfdP6rfNUp5nmluObRuKP1em1xvdU+XY95nrjGKifiGqv6rtYd15Lt8zj52oq2V3jHUk10KaqcrJ/6Hh3YJW2ViDGwlY0+6y27v2uOWbLs7RcTYZYEe8eI9lbsZ8X+8mf8N/z0s3ohGONQjWPJL9FmpBhPKfvjVB/nYtQ4VT5Jz93DHnVryH6o1lD17XI/j6e+vkG4Blbrxn7N7eoTfRdjl32quFVxkryvqDjWUYrrj2uwXyR97mIU1+lrnW3ev/cT29Un153XlH2tzzn3PVfOddtHHx+luH6vIc4vf6it87W0Eu8YE42t685nz1H5Po7d+azq19VCJ/XzevRTY1f91a426xLqwMpri3NF/0vam3wU+0txzfbnim+qGHQa5ZKV9yJVvotrs7SWaFOtLfbzuFXOZL9JefwjlWt/lHtS5ZNsp+953CpvY79q3KzoV/1NjxiHqr/to6JdzAtJn1frPSruI/eNuqXcietcicXMR7lG9bdQbKd95rMjjqe5q/tgtPFc0Zf6qfbsR6nKDa0hz1Gtx/KcebzYt1rjkaryqcodK+dQ5fvYX9IceR5/j8pz5XGkmW86P0qztXf7jjkhae0ey2Os7OcoVfuOa9da1DbyRRzDcj8r+ktjq4/9YNtqLSs1ZH85H9TW+b9TNcaecaN/rNn17MdubH3O9tXapJVYHKmVfVneR2fnPUU5D3J/fc4+6PzX+apS3I9+ju4Ns3HVpmvuLzkW2W/eZ9yDx83z5DXah7aL64z54Dm6defcib6Pc2Y/rGh7hXcs1UQIodtSd+AhhF5P3QMWQgi9lma/eO0VzxcIIYSyuDfUeu7vAtsrvGOpJkKvp5gUWae8Nb4U3eq+rkHyrf6Ni9gW/yTIf6KCEKoV6yUr/infSPpF2/9erRQfjPaMc+viXnEbOqJm0OuIF4IIoefIZ0glfse4H82e31b+Jyj3qOfeg7dXeMdSTYQQul6NDmgOZIReR7rJ62Zf1SF/OxAhdC7xQhAhhNBLi3vDd4q+sE59eb69wjuWaiKE0PWqeyHI39JA6PVUvRA86hdwhBA6VbwQRAgh9NLi3vCd8gvB5/xN2u0V3rFUEyGEEEIIIYQQQgghhM6v7RXesVQTIYQQQgghhBBCCCGEzq/tFd6xVBMhhBBCCCGEEEIIIYTOr+0V3rFUEyGEEEIIIYQQQgghhM6v7RXesVQTIYQQQgghhBBCCCGEzq/tFR4AAAAAAAAAAAAAAAAAAAAAAAAAAAAAAAAAAAAAAAAAAAAAAAAAAAAAAAAAAAAAAAAAAAAAAAAAAAAAAAAAAAAAAAAAAAAAAAAAAAAAAAAAAAAAAAAAAAAAAAAAAAAAAAAAAAAAAAAAAAAAAAAAXABff/31m+9///tv3nnnnQf97Gc/e7Ndghvliy++ePPuu++++f3vf/8Y65wHWeqzmT70j9d++ctfvpUzapvZ/PGPf3zzk5/85NEmr0ms2GTuJaflU/lGPtqaHsj712e1bZcfkA/lS9tIMcYjHJMqpiLHfnXcS0I5E/eQcyhfj6pikvM4K45/Ss7DaZxaK1KX/2blnLxnVs+gqtaqGsvj5VjOaroi58dKH7gcVnJnNb+Mc2KWC+TOU1yfucare2N1VmZ/VjHKY63cO4nTaeTnPCn7O9tUMVsZJ3NKnOHlWa3lSK4/fVbbdvmRnCfVuKu1nJ/NqryEMT7Pu3gJ+T/GoKp1qYqTx+9i4+t5rJVYnnLmaI15r863KhddC10OXhzejG/QdnC1Obh+lJiryW+UC7HAlCuxKKqC0Oc4fpVXVbHoc5xrxSZz6zltnziO2Rf6LB/F2GrvMWbio48+evLdN0j7rcK+9dyVT3PsV8a9NLT2Tz755HG9zqGYhxW227NX+VR9HItTch5O57PPPntSB1WtKK7vvffek7YZyoE4jn7GcwnWzyDl/+z8tn87O40Zr63UdI6Z+8zWApfDSu6s2ERkrzwld9ZwXVu5vuUrncPb17KWsz+F/B/vi929U36X/7emJxCn05GPZjWgM377+hif/CwzGyfTxTmPC6/PSi1nVp7B1BbruKpTzzWr5Wp82I/9qzO9qz3VZazTHMcRiqNsY0wjVXy7MyZTrUPr7NamNv0OoOtxP6Lrp/xSn2q8iyQHSzgIV7MJWMIJrSRdjbGuyy4WY5UzKi4XYNVH6Hss0moNue+KTebWczoeMtHv2+USH5Lx4KyofBdRf13vxuvaZ+NeAys5tBqPSPbNKTkPx1HlsGpO/l99gOzq4JT8uDdyPXS+jKzYVMxqOq9F3NK95NZ5idzxWSDl3IiQO98hP8i/e+5jso9nZeVPjRf/oKY6p2dzEqfTqXw3o4rR3nGq+OzJLXhdci3PyGdyF1t9n50ROVeq/IPTcFx+/vOfty99c0xkE+MxQv1kX8VVeP4870qMq3WM+jnXPv/887Jf9dKyW/dFYmfmTXSbg9shH5IdKpp8kFdJHu26osrt1Ti+Ebh9xSZybzldxaej8mVmdTzHQPZb0wNd+8rcl87MN13ujahqpfKV/XrtPrwGqjhWcRrR2WtMnUOr49wjuc66MyVyql+7OAmej66fldxZsTG21S8F+tmdx+ROzZ57ZLwPdjHK7VU9j+YkTs8jxmiVyud7x6nsnQt71wMvz9745hyp6lrE9tVa1jqUJ8qXBwM4Gftc569UPYPl2MtOfdR3ayrRdf9hj1T9Tbs4/9b0gOydF1vTW1TrGPXTHtTH50zOs5xXK2u4KLoFd06G20HJnIsh4zyYHbCz7ya25we5iAvrm2++mdrkQ11z3FNOaz+VHzIjf0fkV2n72jIaT/GNN4b8/RqJubs1vcVqLCLZ3yO/djkPx1L5WXGfnZeRzn4lj+6dXBPdfShySu2JUVwVK13L59at3ktukZXcWbExirly0+d0zNMIuVOz6mtdj88Mnb+rdn2OZ0H+HiFOp2Pf7/VR9vnecUb2o1jDeci1vEKOo/pWz02xPeeVibV8as5CTeXbeBYLfY9tslUf9d2aSmTnHOji1p3TyofZHHkdo9zIuRXX9mDwJ7JN3vfFkzdgRo6B22ClYEY2yhkdxN2/CaNCiH31U99tO8oxF9vohWBVkOLecrrzQ0Z2K/FevXHP/KmxnBt7HwYuhbiHmY9PyS/XRKyd0TirsYZ92OeOdYyHibkwsjO6VtVbFXP4Dvklnxfx3mHlBy0/fKlGot3Izx63q9l7u5fcIiu5s2IjYk07Byo7Qe7U2NdVXcba7fyva7Gv7Cp7t0ujeyZxOh37yH6e+Vq4T4zX3nFsX8VGbbM1wMszq+VMzoHqfNA4Pn/1PZ7bsl+pZffx3/D2fHFcWMf+dC3K935B+2DwJxS3mAMxN6Jin6rG9TnXdp5fVG0V1Try+CbP3eWa99pdv2i6RVfBgNtCxafYd4fgKAfUFvvaNha90HcXmg8J9dPP2fi6xgvBOZ0fIrJRDOKBm9E12az6Z+RPxT2uafWAvmSUT8rhztezeqqoYjfya2UPx+Nz6zn10uWDa2E09r0y86mxD2MtOGbxHuTxKl9XY2R4Pro9VuJe2eS6dQ7EfIuQOzXZjx2u3exft1vyo2xs5/Gjf9Wn+0NJ4nQc9pn8qThszY/MrpvVcarYqE3XZLM1wZnpanmEbNUnnxNul/LvlCu17PMhj61xZ3kJb2N/xlrU5+hL+TbGPl+vqGJZtcV4WrOxTbUOteV7RXXedGeQ1/jBBx/syveLoHKwsJNzMcLt4IO0K5y9uSE7H9Bb01vEMUc3dR8gKzbb10f2rvsS8b7jIafvat9MHpFvumseR/vu4izkx+6BuaOLTed/+X3vHJeG1t7leJePHZ3/unaxdw44Hfm5qyujGHW1pRyprnX1ce/I33vOh1yLXbyqmlEfnalVjUW6WF3TvQTeJudORbSpzmS35dwy5E7Nnv3LZnYm5NjoZ3cOVO3E6Vjst3y2yr+KZVcvmW4cUdWjqc57OD8rtZzpajYS6zd+3i4/EGu5yyvq/TQqf7rNdZhrUra6Lrut6S1kH3//jYpj5fnz3CO6deT1KieqdUhd/725fhHYebkI1B7/z11weyjmVTIbFcspD1DxYMjkMXPhGbV5nBWbyL3ldBcn+6HynfGD1eymW+G+OQZdXsnv/gVra7o6uhzvcm5EV0dib87D8cjPVR5HRmdoF199r/5x5Hvl1DMo15ziVdWM2uPY+r76sNbVtdp5PrpeurhGoo1U/TJgVflE7tSs+N7IR7NnBtloPPuzu3d25zlxOpbqudD1sxJz0z1fmi7Oauv6wPlYqeVMV7MR2fj+vlLLzqtsM8s3qLHPs99izedancW1G1PkvpXtaq5161C7c0rftfb43XTzdONePC6CfLBqg1e5IVhmFOPR4dgVwawIqzGrwtFntXmcFZvIveW0/JMPq84Hme6gW6GKp5CflQfKh63pga79muhy/JTcquJm9uY8HM9KbYxi6Hjl+hj1uUdOPYNUi/Kvz5OuBjW+z8G9Z5DWpLW5vzml3uFyyLlTMbPpcsOQOzV77mMr9ZrPU/m7Ok+6duJ0LDm+il31zDRjlic8I10Xisne5/+uZo1r189Yq7Ws69mG3DkN+y0/5wr5WNdyTKrajYxyJZ8n3fyzOURnE/NjtL8u31bmvljk2PinN3YAhXHbKL5d0s5u4i5093VhSD689Y+2jq4L51osqFiMYsVGn+N67imndfhkvyp+2u/o5rvik8r3xjHNB2UV69E4l8pnn332xH/eV7UHteUYGPkn39xGY4nKX/rc2cPpyNeffPLJE7+qJnLMPvrooyff8xkjFB/FTWPqe469fup6HOeecZ7PzmVdj+dMVR9VTeU4rtRQjmGO8+qa4TJYyZ0Vm0yVb7neyZ236XygM1jXtq+PdjEu8utXX331+D37W+iz2mK/HAfidAzyn+6L29fy2U++jt8rVsbJcXWMYv3p86hm4XVYqWXFSW26Jq08g638TrlSy86l2Kb1zPIU3qaKrfE1xSPWpWwd+63pCaNYOO4er5vf7XHeTLUOteV7Q87DSDfGaH8Xj4vIioUCt4li3CXt6JpR0secyYU3u240h+Ya2c1s9D2v915yWn7Oh6dveHH/lg+37NMs+cs2VUx8MGv+rekJ6hPH6+wulZw/3R5mflB7vqHYr6OcnOU8HIPjF+OczxKR87l6SKjOIcV/1OeeyTme5fpYrUUR45RjkWMY5fqqYpjnH9UtXBYrubMnv0z+xURUZz258xTXfPZDPCc7X8mv8q+v5zo1+VzJMSFOx5DjIcV6EFVcLT+3roxjm1iXOc65D5yHlVqO99nVZ7A8bhfvlVomd47Bfox1GXEson+7M0E58Jvf/OatOs9oTJ/fo/k9dzdWtY6Yd85Ln1MPnRLV/PocxwEAAAAAAAAAAAAAAAAAAAAAAAAAAAAAAAAAAAAAAAAAAAAAAAAAAAAAAAAAAAAAAAAAAAAAAAAAAAAAAAAAAAAAAAAAAAAAAAAAAAAAAAAAAAAAAAAAAAAAgGvkD3/4wxuEEEIIIYQQQgghhNDlaXuFdyzVRAghhBBCCCGEEEIIofNre4V3LNVECCGEEEIIIYQQQgih82t7hXcs1UQIIYQQQgghhBBCCKHza3uFdyzVRAghhBBCCCGEEEIIofNre4V3LNVECCGEEEIIIYQQQgih82t7hXcs1UQIIYQQQgghhBBCCKHza3uFdyzVRAghhBBCCCGEEEIIofNre4V3LNVECCGEEEIIIYQQQgih82t7hXcs1UQIIYQQQgghhBBCCKHza3uFdyzVRAghhBBCCCGEEEIIofNre4V3LNVEK/r1r3/95gc/+MGb3/72t+V1dN1SXBXfd95551GKebb78ssv33zve997tPnpT3/6lo36xXF+8YtfnGTzu9/97s2Pf/zjR5sq/1Zsslb2cAuST+Ub+ai6Lo1sVmIUJT9G+86ve8e9RK3sddUfUTk3q9ickvPoNK2ei8rhaLOS07dQBy+pVd9Xtqoh1VJnF8fJ9ZQ1qtt7uZfcslZyZ2ZzyplM7jxVVZv5mn3VPbMQp8tSdbZ2Z7j9HP2rz7FvVJcD0ilxRi+vKh9Wn3vy81KO/0qdHmWDeilOVb3Zr139Kw9GNR2VYyTN+ub8keI6u7Omyk/P3+WG+qhvd139Nbd+Vtcrba/wjqWaaKToJA7V29WHH374JDldPLF4XQRuUy4oJ2LB6JpsPJb77LXxjSMWlD7Hol+xyVrZwzXLPnHNVr5YsVmJUZT8+PHHHz/5Lr/G2EjduI7HNWhlr6v+iKp8kfPZsYvjZBt0nFbORdWEYqsY67tjPTpTbqEOXlorvpfsu5m/fd5VY1TSuIpjXEO+HmO2End0WVrJnZlNdybHMyGL3PlOs9rMvrG/8z2POF2W7Kvo75Fkp/jP7D1uzhOri3POF/T6Uj19+umnT77Pzl9J12Un++r6Sp0eZYNquX4l+Uy+i9ezb7Pk45Ua1TxVLnTtPg/ymtSuPm7bc0ZorRpPyvP5enc/k9Sn69tpe4V3LNVEneSoH/7whw+L1qaqIKPblQpE6r5LOS8qm1zoKzZVvumz2lxgKzZZ1dzVONcq1apqVnvpDtgVm5UYzZT9qn7qr3Gi3d5xL1ErOTSzqXwuW5/B+l6Noc9q0zW3oZdTjFPne33vcvqW6+CllWuk82WW+shmT63kubKq61V9osvUSu6s2OhsVsx9RkuzPCN3vpP8MKrNyi/Z58Tp8lT5rpNjI836KMaj+2QVn1mc0fk0i2dVt1krdXqUDXpb8s3sXZGuPfeFoGxGscjXfV/IMa0km9n8ksf81a9+9fBTc2Yb7+X9999vfaH2UU5nba/wjqWaaEUUxf0pFqjirvjnYs5FXh2ocZzn2LgQ3b5iE7W6h1tR9mmlzqby7cp4Udm+OwTl9+pPdq5Jz/G1pDZdk82ofW/Oo+MV49jldNc+unYLdfDSyjW012fdPSCri5F1b/eSW9RK7qzYVLkyyjNyp1bnF31Xu667LftcNsTpcrTHR35+8S/Yo+eYUbwsnpGuS1W8onQt3vOzVur0KJvYfs/K//VGlPwkP8qfsX3mx9HvR5Ljk39Hisox7NZSaZZnlvbhv1Cj8as+WqPm/eqrrx5+5vzWGGrvfFhpe4V3LNVEK9rjWHQbigd1l8C5SHU9Fn3+vmLjm3dV+C5azTuzyUWqeVb2cCvSfio/RHU2sxjNVNnrc3WG7B370rSy/pmNcz7fOGK7P+/JeXS85GvHqYvrKN5qu8U6eA1F30srZ1yUz/qZj/M8WYrVPd1LblHPuT9mKVeiXf4eRe7U6mpTPpQvXY/5u0ScLkvdPa6S/Kg4VHHNmsXZY1SxGcUanUfKEz3z5BqzRvG0Vur0KJvYfo+SD2b/WX9X+/Lr6PlWY4/qs4tPltbm9cXPM8lu5XyIYzo38p60F/ugyvHVvURtr/COpZpoRV2Q0W0qJ3GXwNWBLRv1nf039J3N6CbgQ0N5OLPJhb1nD7egzg9RI5uVOEbpum2rMXW9OkO6Q/WSNdvrqk2U7aMfdONRm36qv8bZk/PoWCk2+eau2MS8dj7nWFpqu5U6eE11vpeU/661zu/Sio9XbO7tXnKLWsmdPfklO18fncXkTq1R3dk39q98Ha8Tp8uSfCMf6W/9xXhknyk+8rFib7/m2Forfh/ZeE1dvNHrSHFwPnSxtnwm+G+Pup9zRjYrdXqUTWy/J6lO5feV+ok1Hdvl1/j7ZKXR+N24Wb4X7I1bvC9Y+XnT+RjvK57P3yXNGdeq63FvXa6NtL3CO5ZqohWtBgNdv1z8sZC6BM5FlwvB12PBzGxGhaw2XVPfmY2Lz1rdw62o80NUZ6P2WRxHko91mMaxuzNE39UeD9lrUrXXU2wk156lOMjnkmNQ5elKrNHzVJ2LluLjmCnOzvUqp33t1urgJdX53n6P55JtKz+u+Hillu7tXnKLWsmdFRvnVIy5ruVfJixyp1ZXm/KTz1S3yUey9RlKnC5L8o18H89Rx9F+y/G2X2MMo2QXY15pFBu1xfWg88s12sXcORLrWJK9c2GlTo+yie33IPvfvq5ssro6lV/zOR41q8+V+peUG9LeuKnPaH6pWkPVpjljm37qu9fS5dpI2yu8Y6kmWtFqMNB1S0VRPSB1CexEV37Ez9FGfXwQrNiMCnml2G2T21f2ENsvUd63bpBWd4jJN7MDrrJZiVFs75Tt9VPjavxsV8XlmrTim73+k2Kex8/Zrst5dIzkW8VuNUdHOX3LdfASGvle16ozrquH2Vk/qrGoLlbXdC+5d63kzopNd5/t+pI7tbr9R19brlO3d76OfYnT60m+lo/kq9wuX6tdP+M5m2OaFWPZyWPEca2V/uj1pTrq7u+utRzPWIMrdXqUTWy/dbmW9DtmVU+d5Cf5S36L7fLr6Pcfnw35HLa6+GS5zmfnSZbsRvNHf1SKPtLn7AO1Oc9X9xK1vcI7lmqiFXVBRrchJ3tXEN2hqHb/34W6JHdfFcSKjb67qKON2/fYRK3sIbZfu+SD0QEnVTarMZop23fj6rv/kdbYfk1a8c1e/0nZZ3tzHj1Ps3Oxk2LR9bnlOjhSK76Xn6t66PzvGuweSrvYZHXjqP0W7yW3qJXcWbHR9c5GOZLrmdypVfnFZ4B8GW0l+Zw4XabkM/s9t8un//Zv/1b+Um3lF0RdLCp1cVZblUfovFKcuxdFrv98LZ4LK3V6lE1svxfZ16rLlfqR/+RH+S22j+IsxbO6uu74jNaQYyjbai2VdD6M5h+tP/et5rUfpS+++OLh+p6c2l7hHUs10Yq6IKPb0KwYnMz5RhvzoiuY2L5io+9VQemz2vbYRK3sIbZfu+SfUUylymY1RjNle8dGc0a7lXVeulZ8s9d/UvaNvu/JefQ8zc7FSrJVn5zn1i3XwZFa8b1yvjq71Tef89KsVlZj4Bjfy73kFrWSOys2+lnlTNdO7tSqarPzVW4nTpclPevIR/oZ20fna+dvaY/PNUe2rXILXYYUEz0X51yxlA85J2I8V+r0KJvYfm+yf/RiMPsoqvPX7PeflWevqrajtK44huxkr37ZNiv3zRrNrT3FHO5s7YP333//4XqX85W2V3jHUk20IoriduWi6QrV0nUdBrar+qmoYp74EImFtmLjsePBo8/x+4qNPse5VvZwK1o9YCub7Lcco+z7Tz/99MnhZvsYC0nzxYNTPzXOnoPx3FrZ64pN5Qv9yVF3XVrJeXSMVs8G/YPXXZ3YRvGJ9XQLdfCSWvV9VVfqk+vGGo1bjRWVY6gx7uVecotayZ0VG/3Ud9V0tIm5kes9Xyd3eh9kX0nZn8Tp8qRYKCaKjb7b/53vRudvHisqx9UxiuPoczUuel19/PHHD/Hxd8cq1qTipDbbVXmT82GlTo+yuXfJ53qh5TMyS76K8bNm9a8c6Go8SrGPZ3RsH82bx9Zn9bF9zqkotemabPI1yXniPNbPai2+phyr9jDS9grvWKqJVtQFGV2/nMxK0kqxgPW5u2Y54a2qiFZs8rpOsdH3nLcre7gFycezA3ZkM4qR/e627FNJ/W0fFcfdeyheglb2umKj73H/vnHZPuettVIX6PnKfs7yuRHzWariUZ1D114HL6lV31vyr691dSN53Nx/dk2qYpjrvOuLLlcruTOzce7YJtdzPuslcuepRvW3em8kTpelPfe47pdut2us2G45N+L1HOc8JjqPYj5YuZ4Uq1y7K/FcqdOjbFAv+as6e12nnT+VG7PfV60cI2lU4z5DRn30OV+3jecb5YLW733Hz9nOa5mdh1nbK7xjqSZCCCGEEEIIIYQQQgidX9srvGOpJkIIIYQQQgghhBBCCJ1f2yu8Y6kmQgghhBBCCCGEEEIInV/bK7xjqSZCCCGEEEIIIYQQQgidX9srvGOpJkIIIYQQQgghhBBCCJ1f2yu8Y6kmQgghhBBCCCGEEEIInV/bK7xjqSZCCCGEEEIIIYQQQgidX9srvGOpJkIIIYQQQgghhBBCCJ1f2ys8AAAAAAAAAAAAAAAAAAAAAAAAAAAAAAAAAAAAAAAAAAAAAAAAAAAAAAAAAAAAAAAAAAAAAAAAAAAAAAAAAAAAAAAAAAAAAAAAAAAAAAAAAAAAAAAAAAAAAAAAAAAAAAAAAAAAAAAAAAAAAAAAADgzv//979+8++67b955551HffHFF2+2y3DD/OxnP3vz/e9//83XX39dxlt5oNxQjmxNj6iP+jpnNNZ26YEqr6Rf/vKXT+z++Mc/vvnJT37yeL2ab8UmM1vfrSB/yjfy0db0QN5/FedTal/zRXspx0NjjK5fC8qZuI+cQ/l6VBUTk2NT2c7mhpdDvs71ckqtiFwL+fyD76juN/nsz+rqwn7v/O14rsTwXu4lt0iVP1VOZLvRPcu2K7VM7szZU+P63F0zKzYZ4nQaq76Odvneaqo8GJ3Pe2oWXpecF5JipZhtJk+onq+keMbmGs15lK9nxVzSuPHaylkOb+O4dTUtlAvxXMi+t6qzw+N3udPlzSjXTLWO2RmiNXZ5V+WQz6hqbxfJRx999GRzfpBeeVCG68VJXBWykndUIO7rHHFRxoJQ23vvvdceEqIqFn2Oxbxik1lZ3zVjnzhG2Rf6LB/FuGnvOdan1L7GibGo+OSTT57MLfvZQXtpaK3ax/b1MYdme7dd58OcmyLns67lWlqZG56P43NErehaHKeKPczvNxXypWxjTEw8H/OZ77hZs1jkmLkWb+Vecusofp999tljrBzPGD/nSzxf85ks3Ne5M8sBcud5yH+xxuXH6Lvqvqi2vfdt4nQaq77OtSS/yk72DwZ/YiVOkdWahfOgWOypH8V/9vuizvF4XeOrbkd9hOxG+efc27Ne+Bb7TvfDrvaUC7FOs/9H6EyWbTyfI1XsfDbMzoJqHVpntza1KUd1Pe5HdP2Um+pTjXc15ADC7aH4/uhHP3rrQHXSq83FmJO5yo9sq/76Pjqsq/H1WW0u/hWbzMr6rpl4yOhQW3kI8iE5u+lVvovMrlfM4nUtrOTQLB6V/zTe7GHolvL3klFsqnOxYlQLXb2t1uu9EHN/T46PfO9xFMPsf/VRm+ZYOZOqeajF6ybXYBXPKj/UT7nwnHspubNO5b/Mij9nNsTpOLLfdK7re7yXVvWzEutIFR99VpuubU1wBlbPx0iVJzNW5sk50eWIvsd7Aqxhf/785z8vn7dErm3ZqE+s3Q71k313Pnj+PO9KPlXrGPVzjnz++edlv+qlZbfuq0KOojhul5jYo198ZZcT3wWYEz8XxKiwTFUsPuTdvmITWV3frbCnVitfZmbjrYyRWcmFa2Dmmy73jPNW42xND3TtkVvx4SWjuCkOs3PRjPKhi5fmWBn7HpFv5LN4v6nofCvUVy8YPVZXU7NaFfd2L7kX8j2suqf5TK7udSvnNbnzPEY1HlmxG53TxOlYsq8736uu3H6Kr/fWLLwejsPofMys1HFm5R6e86+b55T54bsYyM9S9Wyba1V26qO+W1OJrvsPiyX/JZjt8gNx/q3pgZV4VusY9dMe1Mf5nfNO11dy7erIAYTbIRaZEroqYKPrqwWTC7PqGxndNFxY33zzzdTGxWdW13craD+VHzIjf0dGtb86RsR9rv08UT7NHlpnseh8seKjWT3B85BfV89FM6qVLl4reXSvrOb4yO9qVx3OzntfH8VBsZJNzoPZ2HC55Noe3dOUS9V5PupjyJ3nMarxyOzMkP9H5y1xOo7K110c5VfHbRbDzCk1C6+Ha6eruYq9OSBmsa7W0Z0Hs3MCauxj1aLrMtd7PgNi7W9NJbJzfLuaj/NvTQ+s5FNeRzeHyPeJuLYHgz+RbfK+rxI5Mj4wwe2QE34W66qoctKbamz/WzuW2h6M/8So+FxsoxeCtokFKVbXdyt0fsjILscyM8sH+zDGtJrbh7SuX/NZEnN45uPV/PKYsRZ001Bbd/OwP28tdy+FHLtZHYiZja5X9eZYxvjDt3Q+i4z8F8/CWc2sxEGxlU2O8Wqtw2WgOPkcz2fsKJYxn7amB1biT+6czuoZ2dW4+jneVfwixOl5zHzd/VKsfvK7Yug609/M91hS5/tRbDzWKObwsrguYyy7Z1sT88jK9e+4d9czMce2pge0ltge1zsbE55i37kWdY7quTj6MZ8BsnUMo2Kfqsar2s7zi6qtolpHd3bkubv7hvfaXb8qFBA5ZeZIuE5yUivee3+p7RK9KuBIzq2RvdfJC8E5nR8ispHv44GbOaX27dOcIxHbXPOLQaG1aw+dr6ta6bCvLfk83zSNb26zGMPp5BpSfGbn4qxWunxwPHV9a4KNzmeRHCuTz337uYvRShzymMZn2ij+cJm4dn3WjmLZ5dpK/Mmd0+n8HnH9zuzk/9F9mzgdR+Xr7rkmnvXysWoy9vNYlf9HsVnJHXhdVms14nN6VH/KK9lU9/BRjgj3lZRnzsdqLOipnrP02bWt7/kMyNcrqnO5avP8jqU0G9tU61BbfvavcqnLL6/xgw8+KM+9q0GLz46A2yHegLemh7ZRzKs+Tvjcx4U5OlBjAY4ObB8gKzbb10ees75LwfuOh5y+q30zeUS+6a55HPt8a36L59S+/VrFyHgdVbyuCfnHDw9b0yNdPq5g/2Qfah7FfuRbeB7VGae2rh5Wa6UaV6if2k+ptVun85np6sRnkPpvTdNzqeqT6WK10hcuF8XNNdzllOjO9FEfQ+6cxopv5bs990XFoLtvE6djyb7uakixU5wVb32Wr+Xz7fID0WZreuCUmoXzMqrBji4vIop1lSNdXXfstYdv8TkZa9FtrsNck6txjb//RsWx8vx57hHdOvJ6fb+p1PVf+R3hIvHhWhUV3AaOcZXQVlVAKoSc8C64fLCr3f8G19b0Fnm8XHhGbS7wFZvIc9Z3jcgHVe3aD5XvzBG17zGqWES0jufMcwnYp3mvXc6tUj2MaI6rvalcCc7d6jy0XD97a6WKqdD36h9Hhvp+E+l8qlqpYmdVY67UbGej9lu8l9wLitvKSwu1Vfe1lXseuXMaXY2bU+6LjkUVL+J0LNnX+lndM9XumpPvKxu1ayyNuTU9srdm4bx0dTZiFH+jWFc2Xd517LWHb8n1bhQ7PXvpZ67VLmamG1PkvpWtzuyVl8/dOtQec0Frr3Kjm6cb9yroNgu3jxJ59HCl6zmxlSfKl1jgorLN5EKrCkef1eYiW7GJPGd910j2qeh8kDmi9kexMKvruXS6G8BzcyvHUOPt/aUHjqPy/95acV0otlvTA1W9wrfM6miP7zr/m+ecW8+tdzgvub6VIzmeo/xwXnS5Jcid0xjVeI7bKt19WxCnY8m+rmKW60fX5Osc11Eu7K1ZOC9djEeM4m+q57KcXzP22sN3uOYq3yk2uibfxvO1qt1IdWYYtcXzpZt/NofobLRWr3e0P+dN3JtYmfsi8WY5QO+TUeEJXa8SW+1++6/vVR599NFHT8bNfYT7xYKKxShWbPQ5rnNlfbeCDp98Q5Tftd8urmLFJ9n3Gk9xfbj4J3wgxvll89lnnz0Z8xoPSO0h+q87/IXacgyM9h5rTD+/+uqrR7t8XWi8ah54HVQTMSar54diFvO8ir2ux1jDd8i/3Tkxqr8Kx0wx2Jqe0MU0x1DX7+Vecot88sknT/Kpygu3xdzS5y7XnIs5t3K9kzv7mNX4KCZm5b5NnI5hxdduk/RZbfJ//C7UJ7ZpXMXIMfB319zemoXXQzGLZ2MXK7Xpmr7Pfl+Unc7yh4sbuhbr2OTcyeh/XuN5q/yEdRzbGG/ja4pjjL1sY+wzsu3i4Xh5vG5+t8d5M9U61JbvDVWOmW6M0f4uFjtNAavUFRTcBrNk1/UusXVtlCsqxHi9myfnYFXAMxt9z+ucre9W0OGTD0/fEOP+LcdhpfZtY39X4+ZYVONe4802548kX2+XH/ENqrom1B5zP/sw562QT+O8UdnfcDyKfYzZSq3IrjqHFH/bxTHhbeTHqh6EY2Bfz7B9V5fdeFUMZVPFGy6fWH+j+DkfbDM6Z7szP5/1gtxZZ1bjK/fF7G+JOL0MK74WrhfbdM+D6mubHB99Vlscf0/Nwuuxkhf5PptrO8c/55CU79NG83fXRMwzibw5HddgVffCuRB9nP1vKb6/+c1v3qrzjMZ0fozm99zdWNU6Yt4457rzSlTz6/Mo/wAAAAAAAAAAAAAAAAAAAAAAAAAAAAAAAAAAAAAAAAAAAAAAAAAAAAAAAAAAAAAAAAAAAAAAAAAAAAAAAAAAAAAAAAAAAAAAAAAAAAAAAAAAAAAAAAAAAAAA4Br4wx/+8AYhhBBCCCGEEEIIIXR52l7hHUs1EUIIIYQQQgghhBBC6PzaXuEdSzURQgghhBBCCCGEEELo/Npe4R1LNRFCCCGEEEIIIYQQQuj82l7hHUs1EUIIIYQQQgghhBBC6PzaXuEdSzURQgghhBBCCCGEEELo/Npe4R1LNRFCCCGEEEIIIYQQQuj82l7hHUs1EUIIIYQQQgghhBBC6PzaXuEdSzURQgghhBBCCCGEEELo/Npe4R1LNRFCCCGEEEIIIYQQQuj82l7hHUs1EUIIIYQQQgghhBBC6PzaXuEdSzVRpy+//PLN9773vTfvvPPOg/RZbZUtum799re/ffODH/zgMdbSr3/96102OV+y8njWT3/60zK3fve737358Y9//Nhfc2sNe22y8jo1f2V37frFL37x4Bv5KLav1PVKPozkOSrfal2njnsp0r7iHvI+8/WoKiZR2fc5PtXYszHRaVqpFSnntL5nmyzl/d4+96QV3+fzf8WP9nu2y3W3UlN5jdV5hy5bs/N21abKxdG9jdx5Kvu48tme2uzGOfWeTJxO10pNzGzydcVWMY5jZJ3SB72+FGfFZ3TPzrUv5RyqbKQ8rr6Prudar875a5f32NWEayf6pjs7q7h5/O6czDGwckxHynGStGatvbKXnGtR0Qcvscfuuvprbv2srlfaXuEdSzVRp08//fTJgrXJWywQ9Ic3H3744ZO4unhika7YVFLedMWq8ZRTOa98KMWC0uc4zopNlufzmn0jqYr+GmWf+DDLvtBn+SjeCKq6PjXWluaQfYyNpLniIbx33EuQ1v7xxx8/+a495b1m2W60V+fnKB81z63k66Vr5R6Yc9pxHsVIORDHcdyvqQ5eWiu+12fZxe+j+onnY7TJMbPdPd9L7kGzfJFWbBz72T3AIne+k3ygerTyGbham7NxKnnszpY4na6VmpjZONbxuj6rj/pGW6vrMzrL0evLcVKtjupp5XcR5cIPf/jDJ3ZZmiPmjXMvzn0P7zx8psmHVd05LtEve+rHfpYqv+U4SFVMO2ktVUy6du8nz6l29XHb0XvUfro9qU/Xt9P2Cu9YqolWVSUKul2pQKTqmjWz8aHbFbr6/vVf//VbhSz7XMB5rBWbrGq91TjXKvlQN0btRXW6csCt1vUs1pYPOynad/OsjnvJWsmhWTxW4rAaK/Qyyv7vzht972LdxXCWH/eu1dwf+dF1qvtNHKeq39lDW3VurZwD6DK0kk+rObf3HkbufCf5Qf4dnaUrtTkbp5LsR2cucTpdle+yZjZVnGfxreKzJyfQ68hxyvfiFeW8qfIkqou/vo/qf/X8vybZV//4j/9YvrCq9ixfj/xkue+vfvWr1m9q0/z5/JydBVLXt7vu9czGlY7eo669//775Xpn+Vppe4V3LNVEq+qKCt2mnNSjApnZjK77MFZh5ReC1eHgQnT7ik1Ul7+aV/PfWl6vxM+qfJm1Mp7978MyjulrGif2WZn70jXzzcrZqWu5DrI6H6LXUY5jd2Pv2kfXVuJ/z1p9/ujOE/XXH5aov8aJNeQ22bhtFMNuLbK9xXvJLUoxmtXbis3emJM7tTq/6PsRtZk1syNOp2vFR6s2Oc6zuFXnv5+brv0581akGHb34hXl5+0qT6K667N+q2fJNUl7dd2pHrQ/7dPXq98xZDf6/cbS2P4LKRq/6qNx85xSVbdRjsUoV3K8nF95rkovscevvvrq4Wfe1yzvKm2v8I6lmmhVqw5Dt6FZgUojm1yc+ZqKSgWh6zqgXBzKL+VZVfjOQfWf2eQ87YrQ6xwdNNco7WelXkf+jhrF2tIYsvGY2T7HOn+/RmntswfblVis2IxqCr288tnSxX6UE2pTDBXL2L6SR/es7PtK8l13nqi/aqw67/N5lb9nafx7upfcoo46k7t67kTu1PL+8/m3tza7cbJmsSVOp2ulJlbrRnGOccrfo5wbVWxG/dDrSrFQjE6tJfWX/H2WS6rhvc9p0i3mTNxz5f+qhlb9EOPisbNvNW6O1ahure48zopriJ9nkt1L7FHX8jPp6l6itld4x1JN1MlBGv230Og2VSVx1sxG13PhS7n48zijw0FtuqYxZza5sLsiHM13zer8kCW7Kk5Rq/ngcezT6jCWnc+U2ZiXqriHmY9X88s3Gtl5bElz2Ua+lY/j9crH6Bg5dlUsLPk/1k+MUWWvtqre3K/qc49a8b0U66WrhXgW2s+5HvN8o7q6t3vJLUrxlUbn7YqNc0t/Kz7adDlA7tQanX97anPlHF3xNXE6XSs1sWJjKd6+rj6KQbaRRrHxfF1f9DqKcejuxSOprvPvDWqLOSTl+lcOaS7Nqe+eO9o6f7oxbkHym/znvenn7PfvWH9WjkF17qpfPqs1boxD15alcWc2kuccnQWVXnKPuh7PHo2p63HsmbZXeMdSTbQqOyw6A92eFF/FeVRIM5tRMaotFofGmh1Ilvuq0FbHt7oiHM13zer8ECWbWU2v5EM+KO3TfFDmg9H9rtn3yiflb+dr+STeHDr5fI0+s++7+Nh/szijY9TdA90uKRcc8ypuvpbzIdcQeqrO91G6JptYQ/ncr84c13AcW9erOEl5TMvn3jWfZ/ci51PMFeeP82DFRrHW93gGO5+qPCB3anXnn30Z20e1uXKO6lrX3yJOp2ulJlZsHMvoa8VONjku0ig2aotzoddXrqkqviMp9sqZmX1n5/Nc8pmi+fUz2mX77vo1yjUW96R9ujaqGorX3ZZlX8YztWrTuI6BtRL/aqxKWqs0OgsqHb3H2Kaf+u615DpY0fYK71iqifZoxWnoeqX4djdba8WmS/iuoOJ4o0LW3NKKTW7v1uRi1Tpi+yXK+46HaVeP8k13zePkWGStxLqKhdtiHDr/5/hfo7R27aHKoS4fs2RTxWvWfzQ3Ol5dnKK6XJcUp6ruRn3Qt1rxfTxPqrPdbfG8qmqsOsOsLlbXdC+5d3W5FHNhxUZ5pJjneu7uv+ROrW7/0dfWqDZX/FiNmUWcTtdKTazadPVXtTsv1C+2SysxRy+nqm7cVsUrS7Hb83tCl19RXY1Hdbl2rdJe8+8LbpPPqhqa+cB94u+lUXGsHBd9X4nrSqwk17nXpM+VXdZL7tFt3ufqXqK2V3jHUk20R9VG0fXLyb5SECMbS3mS7dy/KibLxeuidl9LbS68FZso33zyg5za/e8ZxvZrVxUDyX6ofGftibX8WcXS8iEou+rs0LV8g7o22ac577qcq6S+VUy6OFp75kDPl+JR5XHUKGbdw4C++x8rju3oO634Pp4nsq/OJEtjff311w+xkm0eS/VYxbGrObXf4r3kFqV4z87bFRvlQJUjaq9yldypVflFPj2qNlevW8TpdMlns5pYsVGMu/qzTb7W9VFblUfodSTfV/dgq4unz4AqV0aKeVRdl+I5Xl2XRrl2jYrPR7Fd+1T7F1988eCTWCuqnZGfujGl3Lfy52x8SfbqF9eVZRuvY0/sXnqPuiYbST7W9T33kO0V3rFUE+3RSuDQ9Wklrquxd+KPCjdKBaZCi8VRFdRKsWebKK9L+4jtss3j3ILknxyvzgdZz63zap4qzqP2a1J3s9iTW52tfDiKl+ZWv2v23zVpVhvO/e788xmVr1f1ip5q5VyanSfZ/9VZNWofXdtT7+i8WjlvV2y687erZ3KnlutSfnDbKbVZjRO16mfidLpWamLFRr7352jTtUvqn+Mzywl0HjkuvhdXGsV6pO78tdSu66O5pVPnv1Sp3qrfVewP/WGHFP0y80FVc5bmic9jle1KHkijeaS8ztVxpZfeo2Tfv//++w/X89k30vYK71iqiSppIx9//PGTtrxpdBty0Yxulis2lpN+xVaq8srzqUjdps/x+4qNPstGtvquufSnUV7bnn1dm3Qo5QNOPtZ+RzW84pPK91G+ucTrbqsO7G6cS9Snn376xH/VXi215RhYik/M+2qcXBv6Hm9u1+i/a5F8u3IP1D+KLlt9rnJcUnwUJ9vl2Ounrsdx71mrvpeNfSrps/wYaySrstHY8b4g5RjlGOY+HjeOgS5XK+ftio2k67HmdU02zoWcS2ond56q80H2lZT9GTXzZY5VFHE6TrOaWLHx99FZnW0co1iz+hy/o8uQYxXjqzipTddW6+3DDz98rFkp54g0e07TtXt455FrrLom3+WYdGemfdnVV46xfjq+0U7tK77WPJVdzJvY7j3l9euz+tj+Nfboa/Lvyl6jtld4x1JNVMkO0MKtboPouuVkjrGO0sGxYuPx9HlPrnSHbp6zKsaZjb7ntWg+20tx7bckHTz5gPPhGPdvOQYrsbZNd0CODlC1xfF8iF6Lcv50e7APuv2pvcr76J9Z7krX5r9r0eo9UP6PNl3O576x396Hg1vXqb6XZue5z65cN/lszPNVMcz1OJsbXZ5G5+0em1E961puI3eeynVZ+WFWm1GjcU65JxOn0zWqiVUbx7OzcW7EmOY+1T0ZnV+OU4xdvM/mOGa5FuP5LFV5FPNMyjmx+sxx7XK9dOeY/ZRjEv1iqd3n4+hc1Fj2Zfwcbez/FZ97zryWylaqYpv7vMYeJa+lytGRtld4x1JNhBBCCCGEEEIIIYQQOr+2V3jHUk2EEEIIIYQQQgghhBA6v7ZXeMdSTYQQQgghhBBCCCGEEDq/tld4x1JNhBBCCCGEEEIIIYQQOr+2V3jHUk2EEEIIIYQQQgghhBA6v7ZXeMdSTYQQQgghhBBCCCGEEDq/tld4x1JNhBBCCCGEEEIIIYQQOr+2V3jHUk2EEEIIIYQQQgghhBA6v7ZXeMdSTYQQQgghhBBCCCGEEDq/tld4AAAAAAAAAAAAAAAAAAAAAAAAAAAAAAAAAAAAAAAAAAAAAAAAAAAAAAAAAAAAAAAAAAAAAAAAAAAAAAAAAAAAAAAAAAAAAAAAAAAAAAAAAAAAAAAAAAAAAAAAAAAAAAAAAAAAcB387Gc/e/P973//zddff/1ma4Ib5Isvvnjz7rvvvvn973//GGfFXLF/5513SqmP7NRHfatrprKRfvnLXz6x++Mf//jmJz/5yeP1vCaxYpPJe1Feb5duCvlTvpGPtqa3qGxWY52ZxUL94jhR13auKGfi+qscWrEx2XdZXV/7NNcOHMPKWVXZdDUSyfVADJ9yil9n9eAxR+Os2Jh7uZfcKvmMlvL9cPUcr87wUQ6RO9+y6l8xq818ZuTnCp0LcS5J9uq3mbwFcTqNFV9nm1x7EdfXyn0y1+IsxvA6VGfkSjwjqr/R7ws6G6p457Ohm596fx6d/+3X7uxWHEb1H8kxkmZ9NW+0l+I6833IqvLT83e5oT7q211Xf82tn1vTdWEHSFe7CRgSC6Iq6IpcxB999NGT/HARxkNA47733nvDPPKNIxaUPse5VmwyzmOvxzeJquivEfvEcax8sWJTMTqwPWaOxUoeyS72u3S0n08++eRxvc6huIcVmxWUr+pX1UqM463k76WhuM3OqpUzL6Nr8V6qn/Fcgv1+HdWD+1rVGCs2kRwz1zi1eD3oPB7FS7GN17tzfO/5Tu58y6p/ZTerTft05ENd23MPJk6nM/O1fKszfvv6eH7nZ0zHwLGf+b57Fs3jwuujWH722WdvxXa1nmwv6fPW/IBi7BxRjapWt0sP6PvsWc7jU+/7mfk/+zYjH6/UqObp4l+1+zzIa1K7+rhNn1fPCK1V40lVPum6fdHdq7q+V4Gc9aMf/ah0OFw/8bBUAlcFndF12XUFbpQ70vZ1qRiqNeT5VmwyeS2iGudakU8VR+2lO2BXbDIzv1YxnfURVb9rZCWHTsmzKl+Nx9OZrDhuzXAgp+bnKG5+QMkxW63Fe+bUelAftY3OpBWbSLWWU2oczkNXhzOqGFe5MILc6en8O6rN1VgSp9djr69Fdb9VTDXOaoyr+HR5A+dH8Vx97lEeVO8hFN/Z769VbmWqnKXe56z6X3HranAlD2QzikW+7jNj5RySzUoeeszPP//84Wd1HnkvH3zwQesLtY9y8WJRAO0AXgjePqsH4EoBi2y3UgzVwZyLe8Umov1o3nwgaR2jg+paWYnPqTHMVDHt/B2pYniNHOlrM6oT+VY3YNeqxt4uwYGMYjBiFOtuTMWS++uYzq+r9bByJj3HRrG7xXvJLaIcUi7tPTtz/e6NObkzJvs30vlO31fOzj3PG8TpeZzybDc6e1frtZrXffeuB16e1TxRTiiGs/cQslMOKZe2pgdG54qg3tfJ//VGZOT/kR9Hz8zC8RnVf45ht5YK5eBofqN9+C/UaPyqj9aoef/nf/7n4WfOb42h9s6HF4s2Hd/8rtx04bpZKaJceCPygT8bf3Tjd9F+8803U5tcpF0Rei+jg+Ya0X4qP0RWbFZjnf3excF08bg2tP7ZA8OKTUb+k7avT1C7YneruXspzM6qjlHsujFPyZF7o/Praj2snGUrNt3ZNZsfLoeVOFfk+s3fZ5A7Y0b+7GImn82eY3RNNqv+JU6ns9fXpvO5WBlzZKN7xCxH4HVRHa+8U1DNrb6H6M6P0bkiutyj3r9DPtB/Bts924rOz/Lr6PlWY4/qs4tPJj4jxs8zZLdyPsQxnRt5T9qLfaBrOV9X93JR5MO12hjcHl1BR1ZsRJUzavN/X1/9d/ajm7oPjdELQdvkwu6KcDTfNdP5IbJisxproYPSMT1i7ksl5nC3hxWbju5GI6LfbHdruXspxBhaVUwiun7KA+so5tD7dU89rPh4xebe7iW3iOMca3v2y0OVX84//c2VOFaXA+ROz6n161/S1C/GINrZv/G6z43N5AnE6XT2+lq4T1eDK34f2ahttgZ4eWKNzs5bkWPaPQcYXVfd6qzYmh5Qe8xHKZ4P1HuPfbdSP53/5VfFLccgajR+N27G94K9cVOfvJ6cZ9X9x/NtXx/QnHGtuh731uXaRaNNxU3ICaNChNtgVnirhaZxVFR77UbjOyd5ITin80NkZrPqGx+U0W50XlQH67Wi/WmfIz+u2ES6uOQcrvwOL8fsTFs582SjmOXz9ZZq4mg6v+6thxUfr9jkec3qeQmXh+PendHddcVauRnblRc676s8IHdqZv4XXW36l7n4i5nPjK6O7W+Np3G35keI03HMfD27Llb8PrJRm67JZmuCM+MazS9UIjlu6jN6D6Hrozwyntu5Qr2/jc/bFX+azv/yq+Km61vTE2b1uRpX5ZK0N27qMzsfqjVUbZoztumnvs9y7WLpNj4qRLgNZoW3kswqrj25EgtoVMgrxW6b7esj3bpdrNr31nSxeN+6kVndISbfzA64mc1KrEU3juJQtc9y7NqQf0Y3O7FiI+Qr+SzndpWnbqvqAF4G+brKXeX6ypnX5f5qrd0bnV9PqYeqT2bFpovVSl+4XBTP6ozW9/jLY6Q7D9Re3fvInbcZ+TfS+ah7zlC7tH19C49XzUucjqXztWtuFCfRPRdFRjazXIDzoDrqnpt0TTmj3Nmahvai6tOhPLEt9f4U19LKuRzp/O867/yoOaoz3HTxybjOvf7VmpfdaP7oj0rRRzGvtqaHNuft6l4ugtnGJQ7W22V2oI4K17kzKqyKPKeL+uFiQG0uvBWbSHewq93/PsXWdBOM4mRmNitjiC4W6l/lUmd/rTi3qrwzKzaiu1moX3UWW5Wf4XjyWbX3zOviq+/+x4q3prtm5tdT6sE12D2UiufYqP0W7yX3QhVX5dnsF9AqR9W+JwfvNXdm/o10vtMY3fPH6Fz2GSO7rekR4nQsla/lW53V2ccVo1hFumdLtc36wuujOqpeFDne+b4eVcVZ41TnbkW0pd5rYhxW6qfzfxdno7E1j+bbmp7g+IzWkGMo22otFcql0fyj9ee+1bz2o/TVV189XL/qnJIjVm/ccL10BS2c1F1RzoqqIx8GVUGtFHu2iXjt+SYy2u81k31aMbKxv2SzNbV0ca/aRzG6VmY3O7FiI1biZuzLlRjBMeT47D3zupjtifs9cMq9ZFYPK2fPio3WpLXdy73kXtAZrfj5GVfxnD3z5j6mq2dy5ztW/BvparPznXyc/RwZ1TpxOpbsa8V85XnIOB7d2W50PcdnFGc4L4rJnjNgZq/rq/UZz2jqfYz9072INZ2/ZvXe3S8jVW1HtK44hut+dmaI3DczmjvnZGdrH3zwwQcP11dz/iLJm4bbZHQAjoraxdcVvMn/y3LZ65CJ/TxWPHj0OX5fsdHnuJc81+qar5HVA7azWYm1fW3bePBmXxt9v+Zz5LPPPnuydvlOPox5t2IjX2U/VHYjHIfodziO2Vm1en7kcyjHXj91Pc51z5x6Ls/qYWXczibHUNfv5V5yiyhOMU8cv3j26vPKWSybeB9VHcd7Z653cudbVv1rOj9V903Z5DNW5/nDxT/hPjFuxOkYVn0dv8/wGPls11yKmdufU8fwsnzyySdPfq90rGJMFSe1RbtIruuMrlf9V37vzG1eX7S5d1SHeqG11/+u086Xq+eB8qOKf5c3njePrc/qY3t97uZXm67JZmt6gvPEeayf1VqErinHRjl8FSiQV78JmNIVtBhdc1Eo2Sv5IFBRxfYup/J4VTHObPQ9r1frsL3kdd0aKwfsyGYl1tHfORZdXFfWdcnk/JG0p+3yAys2+p59ZB+u5qTt89hwDLOzKud8luNYnUOKme24rz5l1a+ZWT34+qi+Opt7vpfcIjl2Us6bXP9R8d4nRvWsa7mN3NnnXzGr3zherlX5XjEYzUGcjmHV1/F6VPV86F/Kc416rtjuPPF4VS7B61PFPNeTYpVrNyL7XKMRXa/6x7NB6sag3p9H53/XaedP5cbq74U5RtKoxn12jPrk/Ig2nm+UC1q/9x0/b5cf8VpGOQwAAAAAAAAAAAAAAAAAAAAAAAAAAAAAAAAAAAAAAAAAAAAAAAAAAAAAAAAAAAAAAAAAAAAAAAAAAAAAAAAAAAAAAAAAAAAAAAAAAAAAAAAAAAAAAAAAAAAAAAAAAAAAAAAAAAAAAAAAAAAAAAAAAAAAAAAAAAAAAAAAAAAAAAAAAAAAAAAAAHA8//Vf//UGfavNJYdRzYHOry08AABwE/zZn/0/UgJwvRTHt7gAAAAASUVORK5CYII=;" parent="1" vertex="1">
          <mxGeometry x="-180" y="110" width="1284" height="201" as="geometry" />
        </mxCell>
        <mxCell id="OYkCUfsQWH_vlijjAo7n-2" value="" style="rounded=0;whiteSpace=wrap;html=1;fillColor=none;strokeColor=#82b366;strokeWidth=3;" parent="1" vertex="1">
          <mxGeometry x="-140" y="113" width="1240" height="37" as="geometry" />
        </mxCell>
        <mxCell id="OYkCUfsQWH_vlijjAo7n-3" value="Text" style="text;html=1;strokeColor=none;fillColor=none;align=center;verticalAlign=middle;whiteSpace=wrap;rounded=0;" parent="1" vertex="1">
          <mxGeometry x="420" y="320" width="60" height="30" as="geometry" />
        </mxCell>
        <mxCell id="OYkCUfsQWH_vlijjAo7n-4" value="columns" style="text;html=1;strokeColor=none;fillColor=none;align=center;verticalAlign=middle;whiteSpace=wrap;rounded=0;fontColor=#4D9900;fontStyle=1;fontSize=20;" parent="1" vertex="1">
          <mxGeometry x="400" y="70" width="60" height="30" as="geometry" />
        </mxCell>
        <mxCell id="OYkCUfsQWH_vlijjAo7n-5" value="" style="rounded=0;whiteSpace=wrap;html=1;fillColor=none;strokeColor=#007FFF;strokeWidth=3;" parent="1" vertex="1">
          <mxGeometry x="-170" y="150" width="30" height="170" as="geometry" />
        </mxCell>
        <mxCell id="OYkCUfsQWH_vlijjAo7n-6" value="index" style="text;html=1;strokeColor=none;fillColor=none;align=center;verticalAlign=middle;whiteSpace=wrap;rounded=0;fontColor=#007FFF;fontStyle=1;fontSize=20;" parent="1" vertex="1">
          <mxGeometry x="-245" y="210" width="60" height="30" as="geometry" />
        </mxCell>
        <mxCell id="OYkCUfsQWH_vlijjAo7n-8" value="" style="rounded=0;whiteSpace=wrap;html=1;fillColor=none;strokeColor=#FF0000;strokeWidth=3;" parent="1" vertex="1">
          <mxGeometry x="50" y="180" width="90" height="30" as="geometry" />
        </mxCell>
        <mxCell id="OYkCUfsQWH_vlijjAo7n-9" value="" style="rounded=0;whiteSpace=wrap;html=1;fillColor=none;strokeColor=#FF0000;strokeWidth=3;" parent="1" vertex="1">
          <mxGeometry x="140" y="210" width="90" height="30" as="geometry" />
        </mxCell>
        <mxCell id="OYkCUfsQWH_vlijjAo7n-14" style="rounded=0;orthogonalLoop=1;jettySize=auto;html=1;entryX=0.5;entryY=1;entryDx=0;entryDy=0;strokeColor=#FF3333;strokeWidth=2;" parent="1" source="OYkCUfsQWH_vlijjAo7n-11" target="OYkCUfsQWH_vlijjAo7n-9" edge="1">
          <mxGeometry relative="1" as="geometry" />
        </mxCell>
        <mxCell id="OYkCUfsQWH_vlijjAo7n-15" style="rounded=0;orthogonalLoop=1;jettySize=auto;html=1;entryX=0.5;entryY=1;entryDx=0;entryDy=0;strokeColor=#FF3333;strokeWidth=2;" parent="1" source="OYkCUfsQWH_vlijjAo7n-11" target="OYkCUfsQWH_vlijjAo7n-8" edge="1">
          <mxGeometry relative="1" as="geometry" />
        </mxCell>
        <mxCell id="OYkCUfsQWH_vlijjAo7n-11" value="values" style="text;html=1;strokeColor=none;fillColor=#FFFFFF;align=center;verticalAlign=middle;whiteSpace=wrap;rounded=0;fontColor=#FF0000;fontStyle=1;fontSize=20;" parent="1" vertex="1">
          <mxGeometry x="90" y="290" width="60" height="30" as="geometry" />
        </mxCell>
      </root>
    </mxGraphModel>
  </diagram>
  <diagram id="z46xSul1rfxHLnPCHjJN" name="ページ2">
    <mxGraphModel dx="1077" dy="627" grid="1" gridSize="10" guides="1" tooltips="1" connect="1" arrows="1" fold="1" page="1" pageScale="1" pageWidth="827" pageHeight="1169" math="0" shadow="0">
      <root>
        <mxCell id="0" />
        <mxCell id="1" parent="0" />
        <mxCell id="YKq82a8GL6LF4am2DMWe-2" value="" style="shape=image;verticalLabelPosition=bottom;labelBackgroundColor=default;verticalAlign=top;aspect=fixed;imageAspect=0;image=data:image/png,iVBORw0KGgoAAAANSUhEUgAAAPgAAAElCAYAAADJBi9OAAAAAXNSR0IArs4c6QAAAARnQU1BAACxjwv8YQUAAAAJcEhZcwAADsIAAA7CARUoSoAAAB/lSURBVHhe7Z29q1XbFcX9v/JXRP+CIHaBhw+bFIJlmjQWphGCTQg8MAQsUj1TGTtJ46uCTUBCwGcTLE/4nTiu884719prn497t8sxYHD3mmuuj/kx9jne99BbO8MwpoUFbhgT49Z//vOfnWmac9ICN82JaYGb5sS0wE1zYlrgpjkxLXDTnJgWuGlOTAvcNCemBW6aE9MC3yDfvHmz++Uvf7n7xS9+sfvTn/60t/3tb3/bj3/1q1/t/vnPf15Zc05yB87mTtyt8vmWueX8WOAbZCXw3/3ud/sxROx5zTlpgfdpgZurWAncn+DbpQVurmIl8JukBd6nBf6VUp+akOf4NZlnfKLtN7/5ze5f//pXc48RH5rkL3/5yxWBV00UXwRxfWyyuO7vf//7/nz5KoYlxj24K98itIfuFxlzonXxTvHecf1ojHENuYwxQe6o+RZ1VvaPtcCnOj/Hk+/NNyzlKOY47h3PPDSGEVrgHcaCVPz1r399xRabLzZRZPya3fIRtV9uot79os/S/iONNLpH1aiR8ouiUXzxHN2/FZ/WRCG1fFqMd4gi1MtJNVqTY9nWCPyYGEZogXcYC6JCRZuaIBZJn9CxgapiYqvW4acmgypybiJsmfHMvC7aqrh6XNqjOquKucqN1sb1ijGLDR/sfMPhWfMxd9oj2ioyh0/0jbZWXno51r1jzHGfmDPl55gYRmiBd1gVpCpe1SwqUovMV/vDkSaSb5yL1N2qda0GbHFkjyoHrfVVfJWfxmLMUTy/InP4yL9i717xrOgb2cpxK7+53qeIYYkWeIe5INhiUSgstkMETuGr/WElgNxE0Vax1XzYWg3Y4sgePYErTq2v4qvOiXtGst+SOOJdW8z30PlRWLJVbOW4ld9c71PEsEQLvMNcEGyxKBQWW0/gvSJV+8PceNh6TaQzq8aq7tFqwBZH9qhy0Fpfxdc6B8a9Ief+4x//WBVDxbgve8C436E5buU313ttHQ6hBd5hJcBYFDVn1dyxiWPxmPvDH/5wxUfr4l7xjNxEca3uFu/baj5saxtrdA/5wSpflUgqm875/e9/f3Ee5Bzm8cNf43gvyNk6f4nxzqLWsuchOY411F1zXbXfKWLo0QLvMBZTyY6NSGGxxeKpYbGreJkjPqLOyE0U71Gx1XzY4lr59Ti6R+9OcW1u9kz5tnKj8/DBt/IZFUfeg/sTB3PH5Lh1d1H3O0UMPVrgHR4rcKjiR+bCxWZgb+ZVdJ1RNVFsDn6yTnfrNV8lzh7X7pGbGz+JRszi4Yx8Tt5Hfr19YK5Bj/llk2M5NMfVvqzVOPbAsTH0aIGb5sS0wM3yk1KMnzRfG2eNaw0tcNOcmBa4aU5MC9w0J6YFbpoT0wI3zYlpgZvmxLTATXNi+t8HN4yJYYEbxsSwwA1jYljghjExLHDDmBgWuGFMDAvcMCaGBW4YE8MCN4yJYYEbxsSwwA1jYnzVAn/y5MmexvH4+PHj7t69e5f+WiP+AsGMd+/e7e7cuXPh08o/a+Nejx492n369Onz7GXI98WLF58tu70va+Iecb6FkfttzSfHSh2oxylggRt7PHv2bN+MgkQXRa5mlU0vhSw8xvjF/VqIzR33Ye2PP/74efTl7J7IR+63NR/FH/uY594LcQ0scKOJnN8q3zQvTUvzApqaMT9HoPUIITZ+BeZ7jT9yv6355DHgGRtzx2KVwHWwvkpQlFhIvbFa81UwICdCY/y1F1TA+Rx4qjee8QVRUK2mUy1kp26jtWDPBw8eXPTFksBzn0SM3G9rPqCKidyRw1asazAscF0sFuGnn37a2wF25jUG2UZQBE3wETlInhFttuW1eZ1xWsT8UkPyH+sL1MjUWo25JFSBvfGNe7RA7+T+ihi539Z8evkiN6Mvyh6GBL70RomXzohNskbg2Y9ExTcfyOuM0yELqtWwsUnVB69evdrb9O2qqjn+auBW/zDWHkt1Hrnf1nzicwY25vA5BkMCVwGiuCJ6b1cuylr2WCPwXNCqCSo/43hQJ0QVcz3SsKoRa2OvUKNY97xXVdsM3alV75H7bc0nPmdgYw6fYzAk8NZlhZZwQZxr+WWh5jGomqDyM44D+axe1q0eUF2obVUjUPnwLLTWZbCm9UEycr+t+fQEfqrePpnA/Qn+dUPN1vrUiI0ZgZ1flFF77ZF9YiNDfe2uWPWHwBn0Wd4fjNxvaz6g1cPYKuGvxao/g7cObAUDYgAEhZ+CA9o7BhnXCDrDAj8PyGNL3KCqE6Dm1IX6gKomvf4AVW0rsL71QTJyv635AGKOY8AzNnyPxZDAAYfxho2HjvwWPV6+Chof9o02nnNiFHRsAp7Zj32NwzHaULkHqnXUP3/KUstenara/vDDDxd9Ayof9sUmv5H7bc1HtqX+PxTDAgcqHpeGXIwLCgpIrIqa96BgOaAqQCUiFli21lnGGGIeK1ZNW80Jeb+lZq1qy3M8B+az2Jd1rBdG7rc1n7X5WoNVAjcM4+uCBW4YE8MCN4yJYYEbxsSwwA1jYljghjExLHDDmBgWuGFMDAvcMCbGrf/+97870zTnpAVumhPTAjfNiWmBm+bEtMBNc2Ja4KY5MS1w05yYFrhpTkwL3DQnpgVumhPTAjfNiWmBfwN8//797u7du5f+8r/Xr19f8Xv79u3u9u3bFz6PHz++4gNZG/d6+PDh7sOHD83558+fX8zhh3+cj4xnZl9iIBbNV1yKYTQXInOtc4kr7hPjHPWp8lHtcygt8G+AT58+3Te+xhJgbGwJQzYJITcbY/zifpGsj/Pad6lp8eM8rVPjR4HynF8mkTqrF8NILiBnSXCVwNkz2quzRny4y1//+tdL45F8jdIC/0ZJA2fxxDGk6WOD0nyMo0Ayq31o1p4wYV6Xz4YSSBajWJ1d7ZOZ1+F7//79fZxr7sFYcY74RHvkSL5GuUrgSgSXzG+3aGu94Vmb17XmYUw6wRI0wUP5tM4y+4xN1GpG8ho/EanHUuPhE+sGlxqWczg/1rHaRz2Q7XA0hoq9+7Eu92p132wf8Yn2yCr2Q7la4FF4Sir87W9/e5Eg5mPCVJhoI6msU+IImK9PPEPtjV/cg/OzLe5rjjE2UavpYg2Ua+W+RfaIgsrjivEusHdW7i1xJIZoj8znR7YEXsUU7SM+0S5iZz7HcShXCzwHS+LyhXiOya4uPdIwzKmY8s/FPXVCvgXmnOV6ibFGEsrLly/3Nn2Dyv0A2Yf95dNqZqh9o0+vN2JPRPtIDNEuLvUP81WMWQuKI8Y74gO5m3LVetEcyoO+okdblYCcbNZURan2Y6xgoda1CsUZFCgmzGyTPJHXmMdcLzHmvNWc1CvWH9841h65ziL+uTdatYaVPxyJIdphlYvMqr/F2KvqQXxzfpZ8IrHj28rXWl6bwBVkpvarAovFbBWKMyzwMZLb6tMq10uUqMmtnnP+K59ci1aNWjXtiZIYYo+IIzFEeysXmaxjPftU85GtO0SO+HDmyN1GeG0Cr4oitgrK2AI/nsqdcpnnWyLArt8ma4/sE+uS6y5q/6p2lT9s9Qy2vA8ciYHxUi4yq/5uMfZrNQ9HfLjrqXr6WgS+lKTYJNmmZFQ+8JTJmJXUrNdUyu1Sbav6M4cPvq1atOy9Zmcu90w8K/rCNTH0cpGZ17eo83N/Ro74QM4kX9LPMbwWgSuwnNj4Px3kxJMEvrLL1kpOq3nM/7Mnikjmybf8qnVVrnPdGMd+UN2iT7TnfhJ1fpznOY/jWUsxVDEtEd94hsgvG2VrxTji88c//vHS3rrj0ktglNcicKgAKYAY91JgcY4glRCtt8DXMec1M+aN59acWNUp++jl3PPRPr26LZ3FmHn8ZOvFsCYXIrZ8BhyJ8RAf2MvJWq4SuGmaXxctcNOcmBa4aU5MC9w0J6YFbpoT0wI3zYlpgZvmxLTATXNi+t8HN4yJYYEbxsSwwA1jYljghjExLHDDmBgWuGFMDAvcMCaGBW4YE8MCN4yJYYEbxsT46gX+5s2b3Z07d3bv3r37bDEMQ9ikwBHtvXv3dh8/fvxsacMCX4eR3LZ8GGPPf4fYixcvPntcxZMnT8r6fPr0affo0aOLPUbutHTW6P0Y9+YzWjGM7qO7i8RN/CDnAS7dZw0s8G8ENKkaqJXbJR/GDx48GM41ftQm10dNzXkCz7HxI6IIes0/cj/Wx9j4ybi1byuG0X0Y9/oT+48//vh59OW81n3WwgL/BkAe1fit3I74MId9NNeI9vvvv79Sn2p/nrExlyH/pcZful/rDMatl0sVw+g+S/dpgRhb91mLGxM4QejTApLI+KYWc3PgpzmSx9vPAh+HxJLFG9HyWdOwavZXr16VNYQRqn22cwdePLrTMQJvzbfsrRhG9yGWQ4Ra5edQ3IjAcwPx84cfftg/g6rB1AAxYSSSxFvg46hym9HyGVkLmI/fBmJ9VMdKqJUgsOHLnpzdE/jS/dQv+EVU9l4MI/v04uwhn3UsbkTgS28ogsyFqmyABJ4yIbOjlceIlg/2+O0KYovIjc18rE+v8bFFgccxd+FO1Tph5H70XYxN+0bfpRjA0j4a8+nPXrpPXCNwjuZ7ujgEN/YJTjCtYjGfE0HgsfhClXyjjSq3GSM+oKojz7FOuT5ZPBFxLf7cQeskmFbPVKjuB+glCYq7KV5+gqUYhN4+ui9z2hfkF0MGvqw5ldBv7M/gCqQKRomKScCnChpfC3wcVW4zRnwExCDfal2uT0/gqjHr2Ye1gmxrBA7i/VqIL5ORGFqI+7TuW8WWMXreCG5M4AJBEEx+Y+YkW+CnQZXbjBEfQb7//ve/9zXUS7ui6teqJTYEAav14ujdwEgsnMfdf/755+EYKmgf+lgvMs6P6L3gBGkirz0ENy5wkItQFYWEVIXCboGPY6ThR3yE2NQV2CvXp6olz9jwr6D5njAqLN1vRHBVDBnVPtWLbClOMHLeKG5E4PzGPBaXJMQiEBhJiAEqMTFhJIK3qgU+DnJGHmP+M1o+z549u5Rn5Z+fLTCX61PVshJDhNZkAcV7jtyPX3rJX6LsvQBAFcPIPvizLp7PnaNf1kIV5zG4EYETpL7ywCrB8omJVfBxXfXfWY02aLYoigotn1y3kbxX4gC5luzdQ9X4rIn3HLkf66PP0rmgimF0n6U48z4wvhCOxSa+ohuGcR5Y4IYxMSxww5gYFrhhTAwL3DAmhgVuGBPDAjeMiWGBG8bEsMANY2Lcqv7RcNM056AFbpoT0wI3zYlpgZvmxLTATXNiWuCmOTEtcNOcmBa4aU5MC9w0J6YFbpoTc7MC//Dhw+7hw4e7x48fl/OmaS7TAjev8PXr17u7d+/u3r9/X86L1Ob27du7t2/fXrI/f/780l8iyDjOQ9awVj7Umpqv9cnMa6r+2ZqPel0+I7kfpb+imxek+UabTI0LeZYdMce1/GQcRa61vEhk4+wo4BGfzLxm5Oyb9pG4o/CX4lxDC9zck+a7f//+vilpSBoRW+ULacLvvvtu38CswaYGVkOLjGPDsjY2NIznj/pkVmtyLFvzyWPIMzbmZDuUZxe4Avjpp5/2P/UJgV2ByFa92WSLY6g1scHM07BqujxPLV6+fHkp//xkXa5HtOe6itE+4hPtsCUKztSn6NZ8GFcvAcWZ7YfwWgSOEAmWoLFxcYLkE4CA5YdN41xMjeOLQDbIMzbzeFKLWK9IbPGTPtYsN68Y7a3mjfYRn2iHnMGddRdRQqNntuajeHiOPpAYmcMnz63htQk8Fp2gKXgMLAfbGuegc5OZx5Oc0oQ0Y7TnmlS5pzHjWjV07AF+5p5gHTaJd8QnsiWoeOet+cTn6AOxMYdPnlvDa/uKHptFRY/Fy8EujUUSWH1qmIezqhnMTYdf9XKVEKFqk+vNs3wge7MuinfERxwR1NZ84nP0gdiYwyfPraEFbl5hVbOWrRJ4ZqvZI3vNLvZ8WmfEXtuaTy+e1otsLS1w8wpzzZT7+Gma2WtGasZ69qnmYUsQkT2fqqdk1+8MtubDuCVkbJXw19ICN6+wqllF/JY+wVt1y2R+6SXQ89E5WSwxlq35MCamOIY8Y8NXtkNpgZtXWNWsIn5Z4PynM61TzSDP8sGffyJXY2qa9xnxQTzxntyHbxPqharPtuYjW3wR8JxfDIfSAjevsKpZRfyy6KgPTS1Wjaqayac6a8QnCxxyJ62BVV9szUd6kM+pxA3PLnDTNG+OFrhpTkwL3DQnpgVumhPTAjfNiWmBm+bEtMBNc2Ja4KY5MS1w05yYtz7/O+GGYUwIC9wwJoYFbhgTwwI3jIlhgRvGxLDADWNiWOCGMTEscMOYGBa4YUwMC9wwJsZZBP7ixYtLfw/Vo0ePdp8+ffo8+39kH3jv3r3dx48fP3vsdk+ePLmY4zkDW2U32uAvMsx5zuj55LoxrsAe0S/3AM/YNF+dN+KT8e7du92dO3cu1lT9sTWfQ+IcxckFTkDPnj37PPpy+VxgGqMKVmBea7RHbCYaKO9ptEGulxpoyYf8Rzs/GWeRM6ap6YUKqmesP8+xniM+GRITvQGq+23N55A41+BavqITKIHxUyCIGFSEglZiAM/yV6LivNEG+Xrw4ME+/+SM3GGLWPJp5ZxxbMaq1hkj+6+5g1D1VN5naz55DHjGxtyxuBaBVxeugheWBM4bsLXW6KNqqIzKpyXcbKcuS58+Ve1Vc9lHfCJaouBe+hTdmg9YG+da3MgnuAKIX1UymFOjyJ+ksAefNCTQWA9ySC16+at8cmMK0T5S154PDc3czz//vOjDPhG5xwQJjb225jOSixznWpxd4Aoivo1k05/3YA4m+8SE5CYzxnGowAE1jHY1K/VhjcavXr26VLu4RjWsmhobcz2Byyf2CmgJKp63NZ/4nIGNOXyOwVkFrgAINDdLxKgfQetFwbMa6BSJ+FZwjMAB+Vfe9cmNbxQ4c4yF+GIYaWoL/CsQOIHRAPGTuwc1RxUsYD99Nad5YvCc0VpnXEZPvMKIjxAbuVVD2dm319TUEY74ZMR7RMSzt+ZzSJxrcRaBc/n8Fl9CL9g8R+Bxb56Zx8/og1zRYDRaCyM+AjVR7lWnXPeqflXzYlvjExGFE4Fd/3Vgaz5gbZxrcXKBc/HqlzFLaCUEYIsCJvjol+eNNsgVeSbfLYz4gCxcUDVsri3+ef9DfCJ0l3x2jGVrPmBtnGtxcoFzYQIjwBZ4CYz8zzCAYOMbD8QztBabsYzcYBVaPvzyTLZWzaoXPE0e/dTAsfl5juMRH57jPTkzfnPUHvEuW/ORrRfnMTiLwAmqooqsJohzVUA98eLfW2vUoLloKBqrhZZPrm0r72rant8pfBjne0pUYhSTsDWfkVwcirP9ks0wjJuHBW4YE8MCN4yJYYEbxsSwwA1jYljghjExLHDDmBgWuGFMDAvcMCaG/31w05yYFrhpTkwL3DQnpgVumhPTAjfNiWmBm+bEtMBNc2Ja4KY5MS1w05yYFrhpTkwL3DQn5lkE/vz580t/0Ry8e/fu7v3795f8Hj9+fDF/+/bt3du3b5vzPMc5zVd2s83Xr19fqQV5J//KdSZr5Jtry/iQfT58+LB7+PDhxVzVHyM+mfkOVX9szeeQOEd5NoFXgUQyT1AEx5g1MTDGmlcCYjPRLHG92Sf5XttAsQYax7X8ZBzrUjHvo3rGHsn9MOKTKTHpRVLdb2s+h8S5hmcROBeMF84kcALlp2wKlOD1rMRAnrWnEhXnzTbJ1/379/f5JmfkDlvlK+Yct3LOuNeM1brqDtlvxCez6ru8z9Z88hjyjI052Q7ljQgcEVdNwRrsBNgTOOt7+5ttVg1VMdeoein37GJV66o/9FKXfcQnsiUK7qVP0a35MF4b51qeXOC6HIWt5mEVFGQNSSE5sTG0J0khQXwa4ZPXm8skh8pxNQ+r5syNuWSH1T69/qAnmGPdkg/7RDv34Cx+RrvuwF5b8xnJRY5zLc8mcP15D+aLtgQemy/vExNSNZM5xpjjah62fKhZtKtZqU9Vk2of1bBqamzM4b/kE/sJtgQVz9uaT3yOPhAbc/jkuTU8y1f0SAVBsCr0iMDzHCRoreO59QIx21zKca/pIPlX3vXJzX5Z4K19evtjY84C/4oEDikYwSqQlsB7QZEofTWnmaIfe1VJMq9ySeCtxmyx5d+y95pafTHik+2t89R7xL01n0PiXMtrEXgOhJ9RoCL2Kqi8Hh8SpHmeq/3MqyRXNBiNVs23atNir5atfVrNiy3WeMknMgon2/VfELbmw3htnGt5rZ/gCpaffL1TkDCLOBL/2CwEHxOX5802yRW1oCZ5rleDii3/pX2w5zvkHhnxidSZWSwx3q35MF4b51qeXOCI9unTpxdjBQp5btkINI5Fgo1vvOyrvbDFdWbN3GCR5Lj1G3H48uXLi3VVDcWlfdTAsfl5juMRH55jLJwXf+GnPeI9tuYjWy/OY3gWgVNcAhOry6pB5FM1Sk+87Nnb36xJc9FQNNaaOUgdlPNe3pf2gWrs3l5LPozzOZwtfxjFtFWfkVwcymv5im6a5s3QAjfNiWmBm+bEtMBNc2Ja4KY5MS1w05yYFrhpTkwL3DQnpgVumhPz1ud/J9wwjAlhgRvGxLDADWNiWOCGMTEscMOYGBa4YUwMC9wwJoYFbhgTwwI3jIlhgRvGxLDADWNinFzgT548ufSXzEU+evRo9+nTp73fixcvrszfu3dv9/Hjx/08iHvxnIGtshuXQU7Jbcz1mzdvPs9eBvboF2uWQe7v3Lmze/fu3X7MT8ZxfWQ8M9ZWzGfxjE3zuT8q5DtU/bE1n0PiHMW1fIKrwWKBEXgVrMC8Cq4EYBPYKzeEUePZs2f7RhMk4lgPQH5pxujbghp3xD/WUqD2sZ4ZqnnsEZ57NdedFJf6Lp6zNZ9D4lyDaxE4AVUFjkFFKGglBvAsfyUqzhvrkPNPM5JTfo6Atd9///2+gXtrqlqpvrHRM/BnHeuFpbrnmEDeZ2s+eQx4xsbcsTi7wFuXrYIXlgROY7TWGmPIL13ymV/CLVALfF+9erUo8OrlPiLwqj+0rqp9q8/ip+jWfMDaONfi7AI/tMBxnfxJCgl68ODBPoHG4YiNNVIPgbyTf+pAPWhWniu0mrxlF3r34c7qiwjuwJ75LjqLvbbmc0ica3FWgbcCkF2/VIA5mOwTE9JqDGMMWZhqOj6RY86xMSfkei4JnPm8B9B5OgfGT6t8TgQ25mKvgJag4l5b84nPGdiYw+cYnFXgrQJnKNAlX4JWI/Cs5jhFIr4VUBNyFpsqCo55gVzHmuSm6wm817wZOl9799bmOwinEt11+sTnDGzM4XMMzipwGiS+mXtQkatgAYnSV3MaKwbPGa11xheQp0qQrdzLTr4hz9iEnsBbDd4CfuzFnr3Gb/VU67wYw9Z8DolzLc4m8BjICHrB5jkCj/vyHAVvXIby18qR5nOtZP/zn/+8/6lvTBVzM1Kr1nkVcr+0Ghxb1SOtfsOu3xlszQesjXMtziZwAiNAAhpBKyEAW2wWgo9+ed64DPK1lJ+q0Xo1AdirT3C9GNY0KHtwlvZibe6f3n10Zo4BX+2zNR+wNs61OJvACYwACTSDIvI/XwhKRuVPsPGNB0iKfLX2FG+7GTHaLORXX5GFXg0BvpXAq70isMd66Y5RDJWN5zyO4mBfvk3o3Cr2rfnI1ovzGJxF4EuiUwMQvFgF1NsH/95a4/9QA8VcR1bNprmlvLK2Ejh29mG/CszHO8Cqxkv3YZzPyXvH+ISt+azN+xqc9ZdshmHcLCxww5gYFrhhTAwL3DAmhgVuGBPDAjeMiWGBG8bEsMANY2L43wc3zYlpgZvmxLTATXNiWuCmOTEtcNOcmBa4aU5MC9w0J6YFbpoT0wI3zYlpgZvmxLTATXNiWuDfAN+/f7+7e/fupb8bDD5//vyS39u3b3e3b9++mH/8+PGl+VP6fPjwYffw4cMLH+7HPbMf1P1fv35dzkdeZww3kYu1tMC/AdIs9+/f3zdbNQ/ViBKRRBVfAqfyUUPHZucZG3OysYeaHi4J/DpjuO5cHEoL/BsgjUZj8bOahzRVbDJIY7KOxjylTx5DNb/EANkHMVRzFU91v+v0yWPIMzbmZDuUZxG4Goq/IjZ+9aBY+etIToCC0zxUoJrLaxjnJJlfuCTwVkPhr0+gU/kwrhq/+iQTW/tGXmcMp/JhvDYXa3k2gRME5Bkb4mYcg87Byi+OeY775DWM2VPz5lWSK3JE01XzrRyqSanJqXzUvDxHH0hDM5e/mrbEEnmq+12nzyG5WMuzCjxeXIHltxLj3puqSoKCZ89WgswvRBjxG1H8VgRbzRhzfyqfqp4iNubwiXb1ziECP0cMp/KJz9EHYmMOnzy3hmf9ih6DawVTCVwFjQ0Z18WXBT8Zx/VmnxK8cjrSjKfyafUBxMYcPtFugV+eW8PNCZzn+AnTWqcm7RXdbJN8UiPE02rGKKxT+fSaOveCeIzAzxHDqXwOycVabkrgo+uUpO+++24/h4/mzDHSYOSQXMamiz7Y9Z/XTuXDuNW82Kpmb+0bear7XacP47W5WMvNC5zn/Od5/NmLf/QO/1Mk4lsjOdPLUbXJjUZzkl+a8lQ+jDk7jiHP2LIglubE64zhJnOxlpsSuAKTj9bEPy8SdPyteh6bV/n06dNL+SFn+Y832VY12al8ZIvNH/sgs9oD4o+decYjZ2/NR7bRXKzl5v4MrqSIL1++vFjHfog5+mtfyLPs5heSr5jT1gsx5z424ql91Njy6TV0JQzIGuzMy3aq+12nz5pcrOVZBG6a5jZogZvmxLTATXNiWuCmOTEtcNOcmBa4aU5MC9w0J6YFbpoT0wI3zYl56/O/E24YxoSwwA1jYljghjExLHDDmBgWuGFMDAvcMCaGBW4Y02K3+x/agz5cE6OokAAAAABJRU5ErkJggg==;" vertex="1" parent="1">
          <mxGeometry x="170" y="140" width="248" height="293" as="geometry" />
        </mxCell>
        <mxCell id="YKq82a8GL6LF4am2DMWe-3" value="" style="shape=image;verticalLabelPosition=bottom;labelBackgroundColor=default;verticalAlign=top;aspect=fixed;imageAspect=0;image=data:image/png,iVBORw0KGgoAAAANSUhEUgAAAdoAAAHfCAYAAAD3KRkcAAAAAXNSR0IArs4c6QAAAARnQU1BAACxjwv8YQUAAAAJcEhZcwAAEnQAABJ0Ad5mH3gAACk7SURBVHhe7Z3RixzHnYDz9+hNT3mL3oIfTF4cODAYYSLCGoIIxFoQXHyQIWA22CBjWMPhmCw562UNvjshk7BwKJyNwLlbvOQWgeIjQTGG2QsIhegk40tdV1dXT011dU/Paneqf/X7PviQdqZnuqdnpr7pnp6ZbwAAAAAAAAAAAAAAAAAAAAAAAAAAAAAAAAAAAAAAAAAAAAAAAAAAAAAAAAAAAAAAAAAAAAAAAAAAAAAAAAAAAAAAAAAAAAAAAAAAAAAAAAAAAAAAAAAAAAAAAAAAAAAAAAAAAAAAAAAAAAAAFIUxc7O/fdls3Z6b5iQAAAB4Vk5uz8yFS3vm0FTMD8xW8//mbAAAgM0Shqk5aQkXq8tm5yhPrNzyzcz+fHj+fgv2wu7B0pbs4a497bj+v78tF57F7QNzoiTc7fpq1p9U6sfAiMcQnB/t85MXvqANc7S3HJFAG6rFk6PP1YH205421PUgOSJui9AeG3e7usvmlun0A+7YZSmFvtC6Fz/d06cKoc0PoQWV+Mj6AKa2bOOwDG39usEs0F6uGahttE/my++VjtlSDePZnNTLmGmHQuujMvSCgNA6CC2sC6EFdRhzbHaiqPjT/C7X1FZhPM0Qcchj+gbxkLXmt2ZoU9edCmn4goDQyoTQ5ofQApwxPrJDgfShGxoAU1uZ7eA/1iASYWjt3/FWdTy/dhmb6yC0MiG0+SG0oJ7ULuF29+CAqa3VOE59LJ54lT3xcsEeN0Cuu0Vb/+0vE8w/jKkboBfrpS+0i/ivP5gvYvaZefTHT8w7f/+q+dZz9rqumG/9YNfs//df3bLOj837b75mnv+OPe+y+eYrb5j3/8udl+LR/Ttmp72uy+bid6+bazc/Mydfp5fPTX/VfLO+HXbeb5j3PnjXvFAv2/I67Xsh9eA3u+bq9xfzrJfzpVfN1d075vgv3fmGATz5dN9c+8Er5qK93HOvmBffPDCfP15vXfZx2vmYv/zB3Np93bzw3Svu9nznqnn5zY/M4Z+70/vnS/I5MfCCJb6f6nn89KbZP+q+SO0sj13+n+6bu2s+5mKM+crcvWGv80rvHqgnn+7W6+zFD7+ozzfmC/PrN6tl+V6zLmuvmOe//7rZOfiDeRQ9zvpCO/SivB1LesaH+r78kX/M2sdaet4Ak6A/tOlXn37gSD0p4zgNUU+7u9cbZvckHHddpwmtpS/mqYHzXEP73JVgwAp8bmZu3HzLvBDEa2F6fg9+9Xo7+MRevH5gHkQD0YPqtibn7R0ZWnff9/hSdT8+XZ6vm/6VarBuwhFplzU1wK7LaeZjvjwwV5sXNR2r+2T/y+XpTxPak18Nrfflx/26y7Mu5t5N8+3qui7e+K15Eq8L89Dc+gc7r9fNrYfuvMUeqbTPv3u8dD1nGVpj/moO3321d909X63n+DYAZGFoULSDxWlC658YQ7uMQ9pw9Q1EA8sQs25oh7a8B0NyXqGttgZe+Fm1tfTlV/Xlzddzc+fG1Xo5rN/80U1z90/+vIfm7q4774UP3BaGx/zxX8yL9jIvvWX27z00T5qomsdfmLvvvlYPTlcPHraXMX/6yE1/6aqZBVsD5ulD8/lv1tuiTfHkz/fN/k9eqae/9m/LW+DtY/A7r5l3Pv6DOWlC/OTLT8zsJXveK+ad++utzxTrzseG5dc/cVF+/vUDc+zj8nTersMLL900x8ELlnVDa8x9887f2XnPzHvh/fT0r+bB0YHZuX6zfdybr78w779ip71qfnz7frv85uuvzINP98yL9kXYP9wxj0Y8T/qwW6huHm+YX0d7H8zDO+aqXf43uxEOsctzcu8jc62+XcvXc5ahfXLXbV1f/MFe+5yw1I+11+3zoro/7/UvJ8DGaR/M0RPADxxDdkJbP2nGxyYMl3/ChU+q8wxtc1L7RPfz9bc79cTvC+2z0A7Cb3/WuU4bzTp0NxLnffmRedmeF93e41/YqF037/+xu4zm62ZwD7bg3PTV7f3XxECXCIRlndBa/O14OZqHC+Brya2xB//6Wj2POM6nYd35tLf775ZjalkEYznO64fWP+/eMndW7CL3W5svRi+qPO4+nJlbiV3a6/Do4PX6NoQvxCwPPrxenX7FzD5dRG2Izz94tZp+eX2fVWjbrevndpPrzb8ouFhtUTcnAeSnfbVvDQaCocj5gSMeVNYJoyUOV/2k264u34TwNKEdGvzdcqdfCLSDYeJ2ec41tIkXCO15P/mks7Vinv7WzOx5S4OQH8xWaANSXWYxfTpCfcs2NDg++fLY7N9811z70avmhej92vh63GOv5/74z3d757Eu687Hn5a6Tyw+zuFl1g+tf1+0Or3a0p59eMfcPaq2tv/SjZm/7mGffevf/OUTc81e1ysfmQftY6ra0v1+dVrqRYfdoq62vt97+w3zcnVfL79fu7wuzi60/gXKChPPGYAsuAFgz+w3QduxA1IzGJwmtOuEqH3i9QxmFvckXCyDvf6+gdc/AYcGZrfc3QG3HciqZVk8kbu3PVtoE/N8pkGouW1Dt9XSt2ypwXHV+2a10fUMBnBgAF6XdefjHw99806d708bG1qL3SV8Z3e2/GKk8uJ3Z+a94EA3t/yr7XuBOJZF/F9t94i0W9PNQVAe8/jY3Oh5z9t7LqH163KVZ/w8BTgV/kFsnwyLqLonw+K0xAM4MH5i15cZ+QD38x8aSN2T0A2Q4f+bs5cIb09zUgf3JF1cxyI03etNRW76oa3uvx9WpyXeZ0uxmD6927Fv2VKDoz8qtX4f9ODYfD7/q3nUbJ31Xc9UQ/ssW7Szu90t0qH72GK3DB/N/2AOPz4wN356vTmQ7bp5/09uec9yN/oqfFi//Yv79bwOd21MFwdBWcKtcXvswC27Jf6wur+b945TLzpWhTY+1sCSfIx//Zk7rdkrU08IMEXirclFaBcP3NRpHj9wxFFbFcOQoev3uPnY6xsb5bHXV000clnr5Wye6FMPrcUNjN332VLYAfPOm9V19Lz/1rdsqTgd/9K917tOaCYbWr+8a7xH668nfh/a0vd+eh/t++a/cvehve76RcwzHvA0hvagqOeq59Lj35qZ3dqODoJaHMi1a+5ER5Jb1gqtX9epYxR8VMPQhuufA55gytSDQvCkP7PQ+ifBihj5y68aRBdbnNb+iMYvHPpw810d1z76QtsOFqe47vayiWVvz1sjtOb+TfN8vSxXzY8/PDYPggNGnjz8whzevmmu/WxxmUe/ecsN4i9Vg2Z7xLN97+0j82O/azBatlSc/OD67Tc/MQ+Co2JP7GeDrzfv3UXXM9nQDhx1fOftZvd4dNRxe+BauB7tkdsf3zQv+4/lBLff3rfXrr9r9j+ttgbD++jP98371+28F59prQ9iq4+OtsvzkTkMjrQ1j91Ryjd+8pa5dcrHdYw7KOqK2bpu79Pui7AwdrPfzIMj2+f17d1qPuc7KrT+WIPnZub9e80Li/jxFz3GH/3bG+4+eO41cyM4itzvGbjz4a55+RfDYwHAxjmr0FoWcUwPbG7QGz+Ajpl+aFlD3HKXHVrL0Odoa4PL2I8R7dcDe3e6iy9drXcjjgmtefiJuZb8rO9l883vvZq8nqmG1mK+/MT8uIlbx8TnVm1IbvWsx9TtXzxm0safdx78HG3t6R/XMe3HeayJrXpLG7uOV+qDouz/R4XWfGUO3118jC30YrXe6heN0WP8NMcDAGSnP7SJB3BgKrQeP4B1TIRhiFURHRpEY1YNbqNMRW9iobU8+fIz895PX1t8i1A1ANpv7Zl9+In5PHi/zWJje/cXry++dcp/w041uKeWrTdOf/7MvBN8u9TzP3rDvPdptUJ6buOUQ2tZ55uhLOaxnd4f3NR8u9bA7T+5d6dzH33re/3fblR/jvfmG+bl4Oje+pu33vwXc+ePq98qGEv4Hmx8EFTIyX/eNFdfCtZN8y1VfuwYE1pL/bnw6na9GD/+vh5+jD+q1p/9Vi3/uLXflPVC9Zi7cfu43asCMBn6Q5sOnB84hkJ73rRP3DXC7Zb79K/86wF7jfkBAAAAAAAAgHbGvJURm3OPSy5YTwAAAAAAAAAAAAAAAAAAAAAAAAAAAAAAAAAAAAAAAAAAAAAAAAAAAAAAAAAAAAAAAAAAAAAAAAAAAAAAAAAAAAAAAAAAAAAAAAAAAAAAAAAAAABFMH/4xCAiolyb4Rymir2Tvvifx4iIKFBCKwBCi4goV0IrAEKLiChXQisAQouIKFdCKwBCi4goV0IrAEKLiChXQisAQouIKFdCKwBCi4goV0IrAEKLiChXQisAQouIKFdCKwBCi4goV0IrAEKLiChXQisAQouIKFdCKwBCi4goV0IrAEKLiChXQisAQouIKFdCKwBCi4goV0IrAEKLiChXQisAQouIKFdCKwBCi4goV0IrAEKLiChXQisAQouIKFdCKwBCi4goV0IrAEKLiChXQisAQouIKFdCKwBCi4goV0IrAEKLiChXQisAQouIKFdCmxlztGcuXNozh8b03hGEFhFRroQ2gYvf5a7bB+YkCKKZH5it8Pzd487KXDUNoUVELFtCm2BM/Iw5NjtVOHeO3DTGzM3+9nJIR01DaFGxV3741Fy5+pWz+n9qGkTpEtoEY+J3cnvW3cKNLjdmmtS8Dnfd1q8PNKHFErVx/V6kPS01LaJkCW2CMaGtYxjvBq53E8/M/txdbsw0yThH8ya0WJp26zWOrJctWyxNQpvAxc9tVfa9t5qMaLSreMw0YWhTkbWkQtucBSCS1Nas157XTAYgkni8JrQj8HEMo3nWod3viayF0EJpEFoomXi8JrQjibc2x+wWHjNNu/W8PauPTt66PV+a3pIKLaJk2XWMmiS0I4kPbBpzoNOYacK//UeB4tgSWizR1FatPS01LaJkCW2Cw93FFqclFcDOLuAz+niP38L1l7EQWixVu/Vq41rLliwWKqFN4HYTV0EMDMPn8QFup4t2E1tWTROH1uJj66cltIiIciW0AiC0iIhyJbQCILSIiHIltAIgtIiIciW0AiC0iIhyJbQCILSIiHIltAIgtIiIciW0AiC0iIhyJbQCILSIiHIltAIgtIiIciW0AiC0uI6/+/1jM3vjKZ6jdh2n1j1iSkIrAEKL62gjEH9ZP56thBbXkdAKgNDiur7986citFuHPl72/6lppmhqnSP2SWgFQGixVD/+j/9tQ2v/n5oGUbqEVgCEFkuV0KIGCa0ACC2WKqFFDRJaARBaLFVCixoktAIgtFiqhBY1SGgFQGixVAktapDQCoDQYqkSWtQgoRUAocVSJbSoQUIrAEKLpUpoUYOEVgCEFkuV0KIGCa0ACC2WKqFFDRJaARBaLFVCixoktAIgtFiqhBY1SGgFQGixVAktapDQCoDQYqkSWtQgoRUAocVSJbSoQUIrAEKLpUpoUYOEVgCEFkuV0KIGCa0ACC2WKqFFDRJaARBaLFVCixoktAIgtFiqhBY1SGgFQGixVAktapDQCoDQYqkSWtQgoRUAocVSJbSoQUIrAEKLpUpoUYOEVgCEFkuV0KIGCa0ACC2WKqFFDRJaARBaLFVCixoktAIgtFiqhBY1SGgFQGixVAktapDQCoDQYqkSWtQgoRUAocVSJbSoQUIrAEKLpUpoUYOEVgCEFkuV0KIGCa0ACC2WKqFFDRJaARBaLFVCixoktAIgtFiqhBY1SGgFQGixVAktapDQCoDQYqkSWtQgoRUAocVSJbSoQUIrAEKLpUpoUYOEVgCEFkuV0KIGCW1mzNGeuXBpzxwa03tHEFosVUKLGiS0KzDm2OxcumwubB+YkyiGZn5gtux53t3jzspcNQ2hRc0SWtQgoR3AmLnZ324CGYXWB3jnyJ3WThuEdNQ0hBYVS2hRg6pCu7R12YTThW4RQ08YxZPbs05oU6fF0RwzTSq0h7tuGf0yEVosVUKLGlQTWh/UVh/axFampY5dc1oqmOH5Hhfymdmfu+nGTJOMcxReQoulSmhRgypCu9gF7AIWh9NtQUaxC84fHdpoV/GYacLQpiJrIbRYqoQWNagktMtxS4a0J8KWTYR2vyeyllRom7MARHPv/t/a0Nr/NycDiCYerwmt/3tpq9Ju4aYdjOipdx1X023P6vePt27Pl6a3sEWLpcoWLWpQSWjdrmMfsTC07W7laIs1JLVFmzot+X7rimnCv/3BWnFsCS2WKqFFDaoIrcVvqdot0jCA9VZnz5akJxnMeBdw4qCqUdMkw7u4jIXQYqkSWtSgmtD66NW7aWOjiMakQmvxW6Dt9US7iS2rpolDa/Gx9dMSWixVQosaVBNaj9+C7QvfFCG0WKqEFjWoLrQSIbRYqoQWNagitIO7jVuXd99OCUKLpUpoUYOEtpXQIm5aQosaVBHaIeLPtU4RQoulSmhRg+pDa0l9scSUILRYqoQWNUhoK9xnbNl1jLhpCS1qUH1o2y+RILSIG5fQogZVhHbUwVDsOkbcuIQWNUhorSu+GSo3hBZLldCiBlWEVjqEFkuV0KIGCa0ACC2WKqFFDRJaARBaLFVCixosMrTjvgkqlqOOETctoUUNEtpWQou4aQktarDI0JYGocVSJbSoQUIrAEKLpUpoUYOEVgCEFkuV0KIG1YR28VWLffIeLeKmJbSoQTWhdT8ckAqsl9AiblpCixpUEdp2a7b+qkX3/50jF1V3hDK/R4uYQ0KLGlQSWvdxn63bVU2b0Nr/N2fze7SImSS0qEF1obV/x2Hl92gR80hoUYNKQtvsOm7iGoaV36NFzCehRQ2qCK2l3optfg7PzA/M1tKBUJXsOkbcuIQWNagmtDHmaG8RWX6PFjGLhBY1qDa0kiC0WKqEFjWoIrT+YCj/kR5pEFosVUKLGlQV2sV7stM98CkFocVSJbSoQRWhDVl6b9Y68fdnLYQWS5XQogbVhTZkObp8vAdx0xJa1KDq0C5//zGhRdy0hBY1qC60nR8XYNcxYjYJLWpQRWi7B0NN+0cEYggtliqhRQ2qCi0f70GcloQWNagitOtgdy2Hv+wzBQgtliqhRQ0S2ghCi7g5CS1qkNBGEFrEzUloUYOENoLQIm5OQosaJLQRhBZxcxJa1CChjSC0iJuT0KIGCW0EoUXcnIQWNUhoIwgt4uYktKhBQhtBaBE3J6FFDRLaCEKLuDkJLWqQ0EYQWsTNSWhRg4RWAIQWS5XQogZVhdbMD8yW/wWf5ufx/I+/T/kHBwgtliqhRQ2qCa0PaqsPrZmb/e3q791jQou4YQktalBFaNuYXtozh1Va7fuw4Q++H+4uzqsvMDEILZYqoUUNKgnt8u/RxqGt/ya0iBuX0KIGCa3/m9AiblxCixpUElq369h/bCcMbbtbOQjv1CC0WKqEFjWoIrQWt9XqtmrD0Lr3ZxcRniKEFkuV0KIG1YTW7z5eOvLYm3Fr1h0NPbzbmtBiqRJa1KCa0Hr8Fmxr4mM9nY8C9U0Xfi73lNMQWtQsoUUNqgvtGOyu5fALLPzWcLh7OT7AKvV53FHTEFpULKFFDaoJrXuPdmb25z56wa7kxJZoTL0lHEwXvs/bnNSJ5phpUqH1W90+0IQWS5XQogZVhDa1JRnvQh46GMrt/l1E2hKH1xJPN2aaZJyj8BJaLFVCixpUEtrlXb/t1mwTwTqIiQOiXPTS5yUjGu0qHjNNGNpUZC2EFkuV0KIGVYW2jVtzgFIqdvbvGD99uNV71qHd74msJRXa5iwA0dy7/7c2tPb/zckAoonHa52hrePWv/s2Rfx+azKip951XE23PevE3MMWLZYqW7SoQSWhXX6Ptg5gENa+XbYhcWjjvy1xsMdME/6d2nK2EFosVUKLGlQRWouLqQ1sYxPdOMLu7+XoxruaLZ2t5NRHd8ZMkwzv8rwILZYqoUUNqgmtxW3JWofD1olydL7HB7idLgioZ9U0cWgtfpn8tIQWS5XQogZVhVYqhBZLldCiBgmtAAgtliqhRQ2qCK1/r7TdfZt0efftlCC0WKqEFjVIaFsJLeKmJbSoQRWhHSL+XOsUIbRYqoQWNag+tJbUF0tMCUKLpUpoUYOEtsJ9nIddx4ibltCiBtWHtv0SCUKLuHEJLWpQRWhHHQzFrmPEjUtoUYOE1pr4GbwpQWixVAktalBFaKVDaLFUCS1qkNAKgNBiqRJa1KCq0C4OfJKz29hCaPP6u9/jeXnrYDm0qWnw7Ew9vvH8VRPa4fdpp3vEsYXQ5jMMAaJk7WM59RjH81dNaP1P5MU/qt7+JB5HHWNCQoulSGjzqSK07dZsT0xdhPkcLXYNQ/v2z58iipPQ5ldVaOOtWQ/fDIV9hqH95QdPEMVJaPPLFm0FW7TYJ6FF6RLa/KoIrYX3aPE0ElqULqHNr5rQctQxnkZCi9IltPlVE1oLn6PFdSW0KF1Cm19VoZUKoc0noUXpEtr8EloBENp8ElqULqHNr5rQJncbL8lRx9iV0KJ0CW1+1YTWH3XcL6HFroQWpUto86sitO0RxwIOfEpBaPNJaFG6hDa/qkLb981QU4fQ5pPQonQJbX5VhNZS7zqe8JdSDEFo80loUbqENr9qQmvmB2br0szsz9l1jOMltChdQpvfIkM7/C1QfXIwFHYltChdQptfQttKaLEroUXpEtr8FhnaZ8H+yMDUDpoitPkktChdQptfQhtBaDGU0KJ0CW1+CW0EocVQQovSJbT5JbQRhBZDCS1Kl9Dml9BGEFoMJbQoXUKbX0IbQWgxlNCidAltfgltBKHFUEKL0iW0+SW0EYQWQwktSpfQ5pfQRhBaDCW0KF1Cm19CG0FoMZTQonQJbX4JbQShxVBCi9IltPkltAIgtPkktChdQptfQisAQptPQovSJbT5VRNaY+Zmfzv1qz1efr0HuxJalC6hza+a0B7upuIaSmixK6FF6RLa/KoIbfv7tNsH5mSiMR2C0OaT0KJ0CW1+VYV2akcTj4XQ5pPQonQJbX5VhNZS7zrePSa0uJaEFqVLaPOrJrRmfmC2Ls3M/pxdxzheQovSJbT5VRHa9j3aQTkYCrsSWpQuoc0voW0ltNiV0KJ0CW1+VYRWOoQ2n4QWpUto80toBUBo80loUbqENr+EVgCENp+EFqVLaPOrJrRT/QpGc7S3ct6ENp+EFqVLaPOrJrT25+/SgfUuYufit3z+zlE3hO4jQ8F0ic/prpqG0E5bQovSJbT5VRHadmu2/gpG938fTndE8vLna+2XW4Rh9eFdOq05knlxPc08gpCOmobQTlpCi9IltPlVEloXPPsVjD524dcxrvrWqNRl6i3k6LuT42iOmSYVWv8DCD7QhDafhBalS2jzqy609u84rG63cv9WZXx5SyrO8bdPjZkmGedoWQhtPgktSpfQ5ldJaJd32YYxa88bCK2bvrt7uRPRaFfxmGnC0PYFPxXa5iw4Z/797v+1A9U/f/R/iOL0j1/7WG4e1nDOxOO1itBa6ug1u3E7ByhZoyB6XAgXYfScdWj3B7aq2aLNJ1u0KF3/+GWLNp9qQhvjA1rb8zu1fZG1JCN66l3HdhlmdfzD3dMeQptPQovSJbT5VRvaVbjduOnIWurzz/hgKL+lHceW0OaT0KJ0CW1+CW2C1HuyMZ1dwKmP7oyZJhne5cAT2nwSWpQuoc1vsaH1kbNRa/8/aLNV2R4clXIRREvnvd5oN7Fl1TRxaC0+tn5aQptPQovSJbT5JbSty7GbEoQ2n4QWpUto81tsaEuC0OYzDO3bP3+KKE5Cm19CKwBCm88wtIiSJbT5LDK043YVx7LrGLsSWixFQptPQttKaLFrGNrUbjnEqUto81tkaFOE3wzVnFQTf4HEFCG0+QxDmzrQBHHqEtr8qgit/8hO6luXLKlvcJoShDafhBalS2jzqyS0bldyX2j7vsx/KhDafBJalC6hza+q0PZttdZbtIQWExJalC6hza+K0FpcTLuxbb+FqeeHBaYAoc0noUXpEtr8qgntqiOR+348YAoQ2nwSWpQuoc2vmtB62i3b1unuMvYQ2nwSWpQuoc2vutBKhNDmk9CidAltflWFdumXdJr3ZFM/Szc1CG0+CS1Kl9DmV01o24Oe4tAmfiN2ahDafBJalC6hza+K0C5+Y9a9H1t/bjY4ypiP92CfhBalS2jzqyS07ohjv3s4Di1fWIF9ElqULqHNL6H1fxNaTEhoUbqENr9KQrv8XcdhaNvdykF4pwahzSehRekS2vyqCK3FbbW6rdowtP5ztX3fgzwFCG0+CS1Kl9DmV01oB78ZasJbsxZCm09Ci9IltPlVE1pP55uhJvyxHg+hzSehRekS2vyqC61ECG0+CS1Kl9DmV01oF5+l7ZOjjrEroUXpEtr8qglt98cEYgktdiW0KF1Cm18VoW0PhJr4QU99ENp8ElqULqHNr6rQTvkjPEMQ2nwSWpQuoc2vktBO/4cDhiC0+SS0KF1Cm18VobW4X++Zmf05u45xvIQWpUto86sntENfWFHLwVDYldCidAltftWElqOO8TQSWpQuoc2vitBy1DGeVkKL0iW0+VUVWo46xnUltChdQptfFaG11LuOOeoY15TQonQJbX7VhJajjvE0ElqULqHNr4rQrj7i2MrBUNiV0KJ0CW1+CW0rocWuhBalS2jzqyK00iG0+SS0KF1Cm19CKwBCm09Ci9IltPkltAIgtPkktChdQptfQisAQptPQovSJbT5JbQCILT5JLQoXUKbX0IrAEKbT0KL0iW0+SW0AiC0+SS0KF1Cm19CKwBCm88wtP/4T08QxUlo80toBUBo8xmGFlGyhDafhFYAhDafhBZLkdDmk9AKgNDm83e/f2w+/o//xXMyfCHzyw/S0+DZmHp842YktAIgtFiqNgA+tMQAS5XQCoDQYqkSWtQgoRUAocVSJbSoQUIrAEKLpUpoUYOEVgCEFkuV0KIGCa0ACC2WKqFFDRLazJijPXPh0p45NKb3jiC0WKqEFjVIaAcw5tjsXLpsdo7SETTzA7NVnX/Bu3vcmW7VNIQWNUtoUYOENkEcx1Ro4wgbMzf728shHTUNoUXFElrUIKEdYGiL9uT2zFzYPjAnQSDjaI6ZJhXaw93lwBNaLFVCixoktAMMhbaOYbwbuN4Snpn9uZt+zDTJOEfhJbRYqoQWNUhoB1g7tNH0Y6YJQ5uKrCUV2uYsANHcu/+3NrT2/83JAKKJx2tCO8AmQ7vfE1kLW7RYqmzRogYJ7QBrh/bUu46r6bZn9QFYW7fnnXkRWixVQosaJLQDDIX2PA6G8kc7x7EltFiqhBY1SGgHGAptZxfwGX28x2/hhvMktFiqhBY1SGgT+C1L/zlabxzcznTRbmLLqmni0Fp8bP20hBZLldCiBgmtAAgtliqhRQ0SWgEQWixVQosaJLQCILRYqoQWNUhoBUBosVQJLWqQ0AqA0GKpElrUIKEVAKHFUiW0qEFCKwBCi6VKaFGDhFYAhBZLldCiBgmtAAgtliqhRQ0SWgEQWixVQosaJLQCILRYqoQWNUhoBUBosVQJLWqQ0AqA0GKpElrUIKEVAKHFUiW0qEFCKwBCi6VKaFGDhFYAhBZLldCiBgmtAAgtliqhRQ0SWgEQWixVQosaJLQCILRYqoQWNUhoBUBosVQJLWqQ0AqA0GKpElrUIKEVAKHFUiW0qEFCKwBCi6VKaFGDhFYAhBZLldCiBgmtAAgtliqhRQ0SWgEQWixVQosaJLQCILRYqoQWNUhoBUBosVQJLWqQ0AqA0GKpElrUIKEVAKHFUiW0qEFCKwBCi6VKaFGDhFYAhBZLldCiBgmtAAgtrquNlgR/+cEitLcO0tNM0d/9Pr3eEVMSWgEQWlxHGwEfLzwfCS2uI6EVAKHFdSS05y+hxXUktAIgtLiuqd2deHam1jlin4RWAIQWEVGuhFYAhBYRUa6EVgCEFhFRroRWAIQWEVGuhFYAhBYRUa6EVgCEFhFRroRWAIQWEVGuhFYAhBYRUa6EVgCEFhFRroRWAIQWEVGuhFYAhBYRUa6EVgCEFhFRroRWAIQWEVGuhFYAhBYRUa6EVgCEFhFRroRWAIQWEVGuhFYAhBYRUa6EVgCEFhFRroRWAIQWEVGuhHYCHO5eNhcueWdmf26W7hRCi4goV0KbmZPbM3Nh+8CcGBdXc7TXiS2hRUSUK6HNiDHHZqfait05WkTVmLnZ375stm7PCS0iYgES2oyY+YHZSuwqrncl7x4TWkTEAiS0GekLbbw7ORXaekIAAJgc8XhNaDNCaAEAyiMerwltRth1jIhYvoQ2IxwMhYhYvoQ2M3y8BxGxbAntBOALKxARy5XQCoDQIiLKldAKgNAiIsqV0AqA0CIiypXQCsDeSYiIKNdmOAcAAAAAAAAAAAAAACgS+7nk8Nu2LO5buLqfUd4kbhn2zGHz5SQAAADicN+sFX4BiPs6y+UvBfGeTXjreQbf7hXiv1LTz6uedve4+o/7+s3uMvUpI9Bu/U9jWae0LFOBdQIAz4SLWhO0+gcb3IASfs1lOE1zsSUWYawMftihvo7g75Ch89r5HVXLE37V5hpbt+FtaU6aLPFA7v4+mxc060JUurBOAOCZsFut4Y8x9GHjdxIM/C5kfsuxisLtajCKwjkUu9Suak9f2MPQ+svH07bzFBzanBCVLqwTADgT4q3FeouzDWlgYiu0b+vU7+qNQ96JYz2QJebV6pYrXMYw4vX/my1f/8IhFXl32uoXFm757HTH9b/tclS30d8mf1rquuJ1l37ve3G+c7Gs8cCenD5a3/U87TpYWpfrbxW3827Wlb+uzm2Izu9dnnD9J4LVeXsidT3B+X0vzvpILkd7/7r7Lp5HvN4690fidrj1EV0uvt+i5QAAZYQRs3/bwSeOSD0gRQNhGLnmpBZ3ndX1bEeDUs8Wq6fv/HgZ463xcPnOIrThgLsIS3za8nLGA7u/nA+EH3zDZVg1kNeXCa8zcR1tLIL7p47YmoO7m/fy5dx1B8vTuU3N+grmHa8HS3y7Ouuqvp6B86P5jiF1H8Wn2fmE19m5vSvuH0t8nf4+Cq/3NPcHABRAO7CGVgOmG2yi05vzmou2A2zfwNeG0c5jaUBtTu8ZcMaE1m0JLa4jPSj3z2MIf7uWYjjiNLd83eWul7VZb/FyWsYM5DH19awZtjGMiciYeY2ZJlwvMWPW5Rj8fdRZVwPXEc87Xu7R6yiaRzwNACijHhiqkPpo2L/DqFjiwaMeOKLBNKQTxuay4en1hBFjQrv4u7peazyo5whtPc9meWKb254KxfiBPLrO4DbX982KsI1hTETsbYgfG3GcxiyP+9vfnhG31xutv1WE8/WPmfjFYX2/RPPx06SXe/U6iq/PSWgBVFIPPrt7dcR2dt1AMCq0dsAZGPTCMPb9PzWf0aFtBmp7+XrZmv/X59UD3/JgOJZnC+3wQJqM1IqB3N+2zu5N4aH1uNN9iNz5Y9blWNyyufUXL4M/L1zWcPr67/gyI9fRui8IAKBgTm7vVQNEE7FqwNipBlE/uHdcJ7T2/GiwtSxC2swzPr8etBKnt6FtBsfEvNsBvuc6xnDq0EYDdIrUALxqIE+FLWdox8zrNMsTzmfMulwHv97j9Z96rJ1FaFO3HwCUUg8Q1cCziNhioEgO7isGqZBUIDz1eVVse2OZOD1exiGSA2h9Wv8yeU4bWks9kEdbYnZg9tPEA7If1IcG8vo6g0Hb347wtNOELcWYiPj5tyFq1sPSY6O+nv7b6S7TXU+d2z2wLtehXWfx9UW3xeLmOxDavtufWEdL66Sebr37AwAK4HDXD3zrh9biBqXlwaMdeAZe0dfXFQ16ltRA75EQWou7bW6wdqaC4s+rljEeyOO//fr0l6nW62EU1k2G1tKGxNv3gqmdpns7V60ny5hpxjD0mFy+P2xA3YuCvtBali9TLZP9cpV4HbUvLgIT6wkAlJAK7dIAMTBQxAOVdWXM7GWiQS/ecotJDlyDLg+OAAAAMMCzbtFqxu8OHTLcfTp1el8IBq56sQcAAAAAAAAAAAAAAAAAAAAAAAAAAAAAAAAAAAAAAAAAAAAAAAAAAAAAAAAAAAAAAAAAAAAAAAAAAAAAAAAAAAAAAAAAAAAAAAAAAKv4xjf+H9L2lRP4TlOVAAAAAElFTkSuQmCC;" vertex="1" parent="1">
          <mxGeometry x="500" y="118" width="311.71" height="315" as="geometry" />
        </mxCell>
        <mxCell id="YKq82a8GL6LF4am2DMWe-11" value="" style="rounded=0;whiteSpace=wrap;html=1;fillColor=none;strokeColor=#FF3333;strokeWidth=1;dashed=1;" vertex="1" parent="1">
          <mxGeometry x="656" y="176" width="30" height="20" as="geometry" />
        </mxCell>
        <mxCell id="YKq82a8GL6LF4am2DMWe-12" value="" style="rounded=0;whiteSpace=wrap;html=1;fillColor=none;strokeColor=#FF3333;strokeWidth=1;dashed=1;" vertex="1" parent="1">
          <mxGeometry x="620" y="376" width="90" height="20" as="geometry" />
        </mxCell>
        <mxCell id="YKq82a8GL6LF4am2DMWe-16" value="" style="rounded=0;whiteSpace=wrap;html=1;fillColor=none;strokeColor=#FF3333;strokeWidth=1;dashed=1;" vertex="1" parent="1">
          <mxGeometry x="590" y="315" width="160" height="12" as="geometry" />
        </mxCell>
        <mxCell id="YKq82a8GL6LF4am2DMWe-17" value="max" style="text;html=1;align=center;verticalAlign=middle;resizable=0;points=[];autosize=1;strokeColor=none;fillColor=none;" vertex="1" parent="1">
          <mxGeometry x="700" y="171" width="50" height="30" as="geometry" />
        </mxCell>
        <mxCell id="YKq82a8GL6LF4am2DMWe-18" value="min" style="text;html=1;align=center;verticalAlign=middle;resizable=0;points=[];autosize=1;strokeColor=none;fillColor=none;" vertex="1" parent="1">
          <mxGeometry x="715" y="371" width="40" height="30" as="geometry" />
        </mxCell>
        <mxCell id="YKq82a8GL6LF4am2DMWe-19" value="50%" style="text;html=1;align=center;verticalAlign=middle;resizable=0;points=[];autosize=1;strokeColor=none;fillColor=none;" vertex="1" parent="1">
          <mxGeometry x="750" y="303" width="50" height="30" as="geometry" />
        </mxCell>
        <mxCell id="YKq82a8GL6LF4am2DMWe-20" value="75%" style="text;html=1;align=center;verticalAlign=middle;resizable=0;points=[];autosize=1;strokeColor=none;fillColor=none;" vertex="1" parent="1">
          <mxGeometry x="750" y="267" width="50" height="30" as="geometry" />
        </mxCell>
        <mxCell id="YKq82a8GL6LF4am2DMWe-21" value="25%" style="text;html=1;align=center;verticalAlign=middle;resizable=0;points=[];autosize=1;strokeColor=none;fillColor=none;" vertex="1" parent="1">
          <mxGeometry x="750" y="334" width="50" height="30" as="geometry" />
        </mxCell>
        <mxCell id="YKq82a8GL6LF4am2DMWe-23" value="" style="rounded=0;whiteSpace=wrap;html=1;fillColor=none;strokeColor=#FF3333;strokeWidth=1;dashed=1;" vertex="1" parent="1">
          <mxGeometry x="590" y="342" width="160" height="13" as="geometry" />
        </mxCell>
        <mxCell id="YKq82a8GL6LF4am2DMWe-24" value="" style="rounded=0;whiteSpace=wrap;html=1;fillColor=none;strokeColor=#FF3333;strokeWidth=1;dashed=1;" vertex="1" parent="1">
          <mxGeometry x="590" y="276" width="160" height="16" as="geometry" />
        </mxCell>
        <mxCell id="YKq82a8GL6LF4am2DMWe-25" value="" style="triangle;whiteSpace=wrap;html=1;" vertex="1" parent="1">
          <mxGeometry x="460" y="217" width="30" height="113" as="geometry" />
        </mxCell>
      </root>
    </mxGraphModel>
  </diagram>
</mxfile>
